<svg xmlns="http://www.w3.org/2000/svg" xmlns:xlink="http://www.w3.org/1999/xlink" width="1080" zoomAndPan="magnify" viewBox="0 0 810 809.999993" height="1080" preserveAspectRatio="xMidYMid meet" version="1.2"><defs><clipPath id="a4f704583a"><path d="M 197 311.25 L 450 311.25 L 450 630 L 197 630 Z M 197 311.25 "/></clipPath><clipPath id="603b2fef4f"><path d="M 453 96.5625 L 604.898438 96.5625 L 604.898438 248 L 453 248 Z M 453 96.5625 "/></clipPath><clipPath id="ceedba083b"><path d="M 353.648438 199 L 472 199 L 472 318 L 353.648438 318 Z M 353.648438 199 "/></clipPath><clipPath id="4277ad619a"><path d="M 421 368 L 672 368 L 672 713.726562 L 421 713.726562 Z M 421 368 "/></clipPath><clipPath id="cf46b0650f"><path d="M 390.117188 401 L 667 401 L 667 547 L 390.117188 547 Z M 390.117188 401 "/></clipPath></defs><g id="a0698f668a"><rect x="0" width="810" y="0" height="809.999993" style="fill:#ffffff;fill-opacity:1;stroke:none;"/><rect x="0" width="810" y="0" height="809.999993" style="fill:#ffffff;fill-opacity:1;stroke:none;"/><path style=" stroke:none;fill-rule:nonzero;fill:#fdc93b;fill-opacity:1;" d="M 422.597656 470.734375 L 212.679688 470.734375 C 210.183594 470.734375 207.957031 469.199219 207.070312 466.859375 L 200.84375 450.4375 C 199.910156 447.984375 197.558594 446.367188 194.933594 446.367188 L 144.246094 446.367188 C 140.183594 446.367188 137.171875 450.152344 138.089844 454.109375 L 183.332031 647.984375 L 463.949219 647.984375 Z M 422.597656 470.734375 "/><g clip-rule="nonzero" clip-path="url(#a4f704583a)"><path style=" stroke:none;fill-rule:nonzero;fill:#b4e0f3;fill-opacity:1;" d="M 197.632812 311.265625 L 449.117188 311.265625 L 449.117188 629.328125 L 197.632812 629.328125 Z M 197.632812 311.265625 "/></g><path style=" stroke:none;fill-rule:nonzero;fill:#62c6ec;fill-opacity:1;" d="M 222.386719 341.882812 L 295.453125 341.882812 L 295.453125 421.726562 L 222.386719 421.726562 Z M 222.386719 341.882812 "/><path style=" stroke:none;fill-rule:nonzero;fill:#62c6ec;fill-opacity:1;" d="M 315.046875 341.882812 L 424.273438 341.882812 L 424.273438 350.171875 L 315.046875 350.171875 Z M 315.046875 341.882812 "/><path style=" stroke:none;fill-rule:nonzero;fill:#62c6ec;fill-opacity:1;" d="M 315.046875 365.234375 L 424.273438 365.234375 L 424.273438 373.523438 L 315.046875 373.523438 Z M 315.046875 365.234375 "/><path style=" stroke:none;fill-rule:nonzero;fill:#62c6ec;fill-opacity:1;" d="M 315.046875 388.582031 L 424.273438 388.582031 L 424.273438 396.871094 L 315.046875 396.871094 Z M 315.046875 388.582031 "/><path style=" stroke:none;fill-rule:nonzero;fill:#62c6ec;fill-opacity:1;" d="M 315.046875 411.929688 L 424.273438 411.929688 L 424.273438 420.21875 L 315.046875 420.21875 Z M 315.046875 411.929688 "/><path style=" stroke:none;fill-rule:nonzero;fill:#62c6ec;fill-opacity:1;" d="M 222.386719 435.277344 L 424.261719 435.277344 L 424.261719 443.570312 L 222.386719 443.570312 Z M 222.386719 435.277344 "/><path style=" stroke:none;fill-rule:nonzero;fill:#62c6ec;fill-opacity:1;" d="M 222.386719 458.628906 L 424.261719 458.628906 L 424.261719 466.917969 L 222.386719 466.917969 Z M 222.386719 458.628906 "/><path style=" stroke:none;fill-rule:nonzero;fill:#62c6ec;fill-opacity:1;" d="M 222.386719 481.976562 L 424.261719 481.976562 L 424.261719 490.265625 L 222.386719 490.265625 Z M 222.386719 481.976562 "/><path style=" stroke:none;fill-rule:nonzero;fill:#62c6ec;fill-opacity:1;" d="M 222.386719 505.324219 L 424.261719 505.324219 L 424.261719 513.613281 L 222.386719 513.613281 Z M 222.386719 505.324219 "/><path style=" stroke:none;fill-rule:nonzero;fill:#62c6ec;fill-opacity:1;" d="M 222.386719 528.675781 L 424.261719 528.675781 L 424.261719 536.964844 L 222.386719 536.964844 Z M 222.386719 528.675781 "/><path style=" stroke:none;fill-rule:nonzero;fill:#62c6ec;fill-opacity:1;" d="M 222.386719 552.023438 L 424.261719 552.023438 L 424.261719 560.3125 L 222.386719 560.3125 Z M 222.386719 552.023438 "/><path style=" stroke:none;fill-rule:nonzero;fill:#62c6ec;fill-opacity:1;" d="M 222.386719 575.371094 L 424.261719 575.371094 L 424.261719 583.660156 L 222.386719 583.660156 Z M 222.386719 575.371094 "/><path style=" stroke:none;fill-rule:nonzero;fill:#62c6ec;fill-opacity:1;" d="M 222.386719 598.71875 L 424.261719 598.71875 L 424.261719 607.011719 L 222.386719 607.011719 Z M 222.386719 598.71875 "/><path style=" stroke:none;fill-rule:nonzero;fill:#f7a739;fill-opacity:1;" d="M 305.164062 470.734375 L 309.539062 458.039062 C 311.503906 452.316406 307.257812 446.367188 301.21875 446.367188 L 239.054688 446.367188 C 234.96875 446.367188 231.410156 449.191406 230.476562 453.164062 L 185.023438 647.972656 L 465.640625 647.972656 L 503.550781 485.519531 C 505.316406 477.945312 499.578125 470.71875 491.804688 470.71875 L 305.164062 470.71875 Z M 305.164062 470.734375 "/><path style=" stroke:none;fill-rule:nonzero;fill:#ff4d4d;fill-opacity:1;" d="M 587.832031 144.160156 L 557.453125 144.160156 L 557.453125 113.796875 C 557.453125 108.039062 552.785156 103.375 547.027344 103.375 L 511.851562 103.375 C 506.089844 103.375 501.421875 108.039062 501.421875 113.796875 L 501.421875 144.160156 L 471.042969 144.160156 C 465.28125 144.160156 460.613281 148.824219 460.613281 154.582031 L 460.613281 189.738281 C 460.613281 195.496094 465.28125 200.164062 471.042969 200.164062 L 501.421875 200.164062 L 501.421875 230.523438 C 501.421875 236.28125 506.089844 240.949219 511.851562 240.949219 L 547.027344 240.949219 C 552.785156 240.949219 557.453125 236.28125 557.453125 230.523438 L 557.453125 200.160156 L 587.832031 200.160156 C 593.59375 200.160156 598.261719 195.496094 598.261719 189.738281 L 598.261719 154.582031 C 598.261719 148.828125 593.59375 144.160156 587.832031 144.160156 Z M 587.832031 144.160156 "/><g clip-rule="nonzero" clip-path="url(#603b2fef4f)"><path style=" stroke:none;fill-rule:nonzero;fill:#ffffff;fill-opacity:1;" d="M 587.835938 137.476562 L 564.140625 137.476562 L 564.140625 113.796875 C 564.140625 104.367188 556.464844 96.691406 547.027344 96.691406 L 511.84375 96.691406 C 507.277344 96.691406 502.980469 98.472656 499.746094 101.707031 C 496.507812 104.941406 494.726562 109.234375 494.730469 113.796875 L 494.730469 137.480469 L 471.042969 137.480469 C 461.601562 137.480469 453.925781 145.152344 453.925781 154.585938 L 453.925781 189.742188 C 453.925781 199.175781 461.601562 206.847656 471.042969 206.847656 L 494.726562 206.847656 L 494.726562 230.527344 C 494.726562 239.960938 502.402344 247.632812 511.84375 247.632812 L 547.027344 247.632812 C 556.464844 247.632812 564.140625 239.957031 564.140625 230.523438 L 564.140625 206.84375 L 587.835938 206.84375 C 597.273438 206.84375 604.949219 199.171875 604.949219 189.738281 L 604.949219 154.582031 C 604.949219 145.148438 597.273438 137.476562 587.835938 137.476562 Z M 555.230469 193.476562 C 552.765625 193.476562 550.769531 195.472656 550.769531 197.933594 L 550.769531 230.523438 C 550.769531 232.585938 549.09375 234.261719 547.03125 234.261719 L 511.851562 234.261719 C 509.789062 234.261719 508.105469 232.585938 508.105469 230.523438 L 508.105469 197.933594 C 508.105469 195.472656 506.113281 193.476562 503.648438 193.476562 L 471.042969 193.476562 C 468.980469 193.476562 467.300781 191.800781 467.300781 189.738281 L 467.300781 154.582031 C 467.300781 152.519531 468.976562 150.84375 471.042969 150.84375 L 503.644531 150.84375 C 506.109375 150.84375 508.101562 148.847656 508.101562 146.386719 L 508.101562 113.796875 C 508.101562 111.734375 509.777344 110.058594 511.84375 110.058594 L 547.027344 110.058594 C 549.089844 110.058594 550.769531 111.738281 550.769531 113.796875 L 550.769531 146.386719 C 550.769531 148.847656 552.765625 150.84375 555.230469 150.84375 L 587.839844 150.84375 C 589.902344 150.84375 591.578125 152.519531 591.578125 154.582031 L 591.578125 189.738281 C 591.578125 191.800781 589.902344 193.476562 587.839844 193.476562 Z M 555.230469 193.476562 "/></g><path style=" stroke:none;fill-rule:nonzero;fill:#ff4d4d;fill-opacity:1;" d="M 455.667969 238.382812 L 432.796875 238.382812 L 432.796875 215.523438 C 432.796875 210.328125 428.582031 206.121094 423.386719 206.121094 L 402.007812 206.121094 C 396.808594 206.121094 392.597656 210.332031 392.597656 215.523438 L 392.597656 238.382812 L 369.726562 238.382812 C 364.527344 238.382812 360.3125 242.59375 360.3125 247.789062 L 360.3125 269.15625 C 360.3125 274.351562 364.527344 278.5625 369.726562 278.5625 L 392.597656 278.5625 L 392.597656 301.421875 C 392.597656 306.617188 396.808594 310.828125 402.007812 310.828125 L 423.386719 310.828125 C 428.582031 310.828125 432.796875 306.617188 432.796875 301.421875 L 432.796875 278.5625 L 455.667969 278.5625 C 460.867188 278.5625 465.078125 274.351562 465.078125 269.15625 L 465.078125 247.789062 C 465.078125 242.59375 460.863281 238.382812 455.667969 238.382812 Z M 455.667969 238.382812 "/><g clip-rule="nonzero" clip-path="url(#ceedba083b)"><path style=" stroke:none;fill-rule:nonzero;fill:#ffffff;fill-opacity:1;" d="M 455.664062 231.703125 L 439.480469 231.703125 L 439.480469 215.527344 C 439.480469 206.660156 432.261719 199.445312 423.386719 199.445312 L 402.007812 199.445312 C 393.128906 199.445312 385.910156 206.660156 385.910156 215.527344 L 385.910156 231.703125 L 369.730469 231.703125 C 360.851562 231.703125 353.632812 238.917969 353.632812 247.792969 L 353.632812 269.15625 C 353.632812 278.03125 360.851562 285.246094 369.730469 285.246094 L 385.90625 285.246094 L 385.90625 301.417969 C 385.90625 310.292969 393.128906 317.507812 402.003906 317.507812 L 423.386719 317.507812 C 427.679688 317.507812 431.722656 315.832031 434.765625 312.789062 C 437.808594 309.746094 439.480469 305.710938 439.480469 301.417969 L 439.480469 285.246094 L 455.664062 285.246094 C 464.539062 285.246094 471.757812 278.03125 471.757812 269.15625 L 471.757812 247.792969 C 471.757812 238.917969 464.539062 231.703125 455.664062 231.703125 Z M 426.105469 276.332031 L 426.105469 301.417969 C 426.105469 302.917969 424.886719 304.136719 423.386719 304.136719 L 402.007812 304.136719 C 400.503906 304.136719 399.285156 302.917969 399.285156 301.417969 L 399.285156 276.332031 C 399.285156 273.867188 397.289062 271.875 394.824219 271.875 L 369.730469 271.875 C 368.226562 271.875 367.007812 270.65625 367.007812 269.15625 L 367.007812 247.792969 C 367.007812 246.289062 368.226562 245.066406 369.730469 245.066406 L 394.824219 245.070312 C 397.285156 245.070312 399.28125 243.078125 399.28125 240.613281 L 399.28125 215.527344 C 399.28125 214.03125 400.503906 212.8125 402.003906 212.8125 L 423.386719 212.8125 C 424.886719 212.8125 426.105469 214.027344 426.105469 215.527344 L 426.105469 240.613281 C 426.105469 243.078125 428.101562 245.070312 430.5625 245.070312 L 455.664062 245.070312 C 457.164062 245.070312 458.382812 246.289062 458.382812 247.789062 L 458.382812 269.15625 C 458.382812 270.65625 457.164062 271.875 455.664062 271.875 L 430.5625 271.875 C 428.101562 271.875 426.105469 273.867188 426.105469 276.332031 Z M 426.105469 276.332031 "/></g><path style=" stroke:none;fill-rule:nonzero;fill:#ff4d4d;fill-opacity:1;" d="M 545.832031 296.207031 L 534.238281 296.207031 L 534.238281 284.621094 C 534.238281 280.617188 530.988281 277.371094 526.984375 277.371094 L 510.363281 277.371094 C 506.355469 277.371094 503.109375 280.617188 503.109375 284.621094 L 503.109375 296.207031 L 491.519531 296.207031 C 487.511719 296.207031 484.261719 299.457031 484.261719 303.457031 L 484.261719 320.070312 C 484.261719 324.074219 487.507812 327.316406 491.519531 327.316406 L 503.109375 327.316406 L 503.109375 338.902344 C 503.109375 342.910156 506.359375 346.152344 510.363281 346.152344 L 526.984375 346.152344 C 530.992188 346.152344 534.238281 342.910156 534.238281 338.902344 L 534.238281 327.316406 L 545.832031 327.316406 C 549.839844 327.316406 553.085938 324.074219 553.085938 320.070312 L 553.085938 303.457031 C 553.085938 299.457031 549.839844 296.207031 545.832031 296.207031 Z M 545.832031 296.207031 "/><path style=" stroke:none;fill-rule:nonzero;fill:#ffffff;fill-opacity:1;" d="M 545.832031 289.523438 L 540.925781 289.523438 L 540.925781 284.617188 C 540.925781 276.933594 534.675781 270.683594 526.984375 270.683594 L 510.359375 270.683594 C 502.667969 270.683594 496.417969 276.933594 496.417969 284.617188 L 496.417969 289.523438 L 491.511719 289.523438 C 483.824219 289.523438 477.570312 295.773438 477.570312 303.457031 L 477.570312 320.066406 C 477.570312 327.75 483.824219 334 491.511719 334 L 496.417969 334 L 496.417969 338.910156 C 496.417969 346.59375 502.667969 352.839844 510.359375 352.839844 L 526.984375 352.839844 C 534.675781 352.839844 540.925781 346.59375 540.925781 338.910156 L 540.925781 334 L 545.832031 334 C 553.523438 334 559.777344 327.75 559.777344 320.066406 L 559.777344 303.457031 C 559.777344 295.773438 553.523438 289.523438 545.832031 289.523438 Z M 532.015625 320.636719 C 529.550781 320.636719 527.554688 322.632812 527.554688 325.09375 L 527.554688 338.914062 C 527.554688 339.21875 527.292969 339.480469 526.988281 339.480469 L 510.367188 339.480469 C 510.058594 339.480469 509.796875 339.21875 509.796875 338.914062 L 509.796875 325.09375 C 509.796875 322.632812 507.800781 320.636719 505.339844 320.636719 L 491.515625 320.636719 C 491.210938 320.636719 490.949219 320.378906 490.949219 320.070312 L 490.949219 303.464844 C 490.949219 303.160156 491.210938 302.898438 491.515625 302.898438 L 505.339844 302.898438 C 507.800781 302.898438 509.796875 300.90625 509.796875 298.441406 L 509.796875 284.621094 C 509.796875 284.316406 510.058594 284.054688 510.367188 284.054688 L 526.988281 284.054688 C 527.292969 284.054688 527.554688 284.316406 527.554688 284.621094 L 527.554688 298.441406 C 527.554688 300.90625 529.550781 302.898438 532.015625 302.898438 L 545.835938 302.898438 C 546.144531 302.898438 546.40625 303.160156 546.40625 303.464844 L 546.40625 320.070312 C 546.40625 320.378906 546.144531 320.636719 545.835938 320.636719 Z M 532.015625 320.636719 "/><path style=" stroke:none;fill-rule:nonzero;fill:#fec9e4;fill-opacity:1;" d="M 637.066406 478.058594 C 637.066406 479.792969 637.023438 481.527344 636.941406 483.261719 C 636.855469 484.996094 636.726562 486.726562 636.558594 488.453125 C 636.386719 490.179688 636.175781 491.902344 635.921875 493.617188 C 635.667969 495.335938 635.371094 497.046875 635.035156 498.746094 C 634.695312 500.449219 634.316406 502.140625 633.894531 503.828125 C 633.472656 505.511719 633.011719 507.183594 632.511719 508.84375 C 632.007812 510.503906 631.464844 512.152344 630.878906 513.785156 C 630.296875 515.417969 629.675781 517.039062 629.011719 518.640625 C 628.347656 520.246094 627.648438 521.832031 626.90625 523.402344 C 626.164062 524.96875 625.386719 526.519531 624.570312 528.050781 C 623.753906 529.582031 622.902344 531.089844 622.011719 532.578125 C 621.121094 534.070312 620.195312 535.535156 619.230469 536.976562 C 618.269531 538.421875 617.273438 539.839844 616.238281 541.234375 C 615.207031 542.628906 614.144531 543.996094 613.042969 545.335938 C 611.945312 546.679688 610.816406 547.992188 609.652344 549.277344 C 608.488281 550.566406 607.292969 551.820312 606.070312 553.046875 C 604.84375 554.277344 603.589844 555.472656 602.308594 556.636719 C 601.023438 557.804688 599.714844 558.9375 598.375 560.039062 C 597.035156 561.140625 595.671875 562.207031 594.277344 563.242188 C 592.886719 564.273438 591.472656 565.273438 590.03125 566.238281 C 588.59375 567.203125 587.128906 568.128906 585.644531 569.023438 C 584.15625 569.914062 582.652344 570.769531 581.125 571.589844 C 579.597656 572.40625 578.050781 573.1875 576.484375 573.929688 C 574.917969 574.671875 573.335938 575.375 571.734375 576.039062 C 570.136719 576.703125 568.519531 577.328125 566.890625 577.910156 C 565.257812 578.496094 563.613281 579.039062 561.957031 579.542969 C 560.300781 580.046875 558.628906 580.511719 556.949219 580.933594 C 555.269531 581.355469 553.582031 581.734375 551.882812 582.074219 C 550.183594 582.410156 548.476562 582.707031 546.765625 582.964844 C 545.050781 583.21875 543.332031 583.429688 541.609375 583.601562 C 539.886719 583.769531 538.160156 583.898438 536.429688 583.984375 C 534.699219 584.070312 532.96875 584.109375 531.234375 584.109375 C 529.503906 584.109375 527.773438 584.070312 526.042969 583.984375 C 524.3125 583.898438 522.585938 583.769531 520.863281 583.601562 C 519.136719 583.429688 517.421875 583.21875 515.707031 582.964844 C 513.992188 582.707031 512.289062 582.410156 510.589844 582.074219 C 508.890625 581.734375 507.199219 581.355469 505.519531 580.933594 C 503.839844 580.511719 502.171875 580.046875 500.515625 579.542969 C 498.855469 579.039062 497.210938 578.496094 495.582031 577.910156 C 493.949219 577.328125 492.335938 576.703125 490.734375 576.039062 C 489.136719 575.375 487.550781 574.671875 485.988281 573.929688 C 484.421875 573.1875 482.875 572.40625 481.347656 571.589844 C 479.820312 570.769531 478.3125 569.914062 476.828125 569.023438 C 475.339844 568.128906 473.878906 567.203125 472.4375 566.238281 C 471 565.273438 469.582031 564.273438 468.191406 563.242188 C 466.800781 562.207031 465.433594 561.140625 464.097656 560.039062 C 462.757812 558.9375 461.445312 557.804688 460.164062 556.636719 C 458.878906 555.472656 457.625 554.277344 456.402344 553.046875 C 455.175781 551.820312 453.984375 550.566406 452.820312 549.277344 C 451.65625 547.992188 450.523438 546.679688 449.425781 545.335938 C 448.328125 543.996094 447.261719 542.628906 446.230469 541.234375 C 445.199219 539.839844 444.203125 538.421875 443.238281 536.976562 C 442.277344 535.535156 441.351562 534.070312 440.460938 532.578125 C 439.570312 531.089844 438.714844 529.582031 437.898438 528.050781 C 437.082031 526.519531 436.304688 524.96875 435.566406 523.402344 C 434.824219 521.832031 434.121094 520.246094 433.460938 518.640625 C 432.796875 517.039062 432.171875 515.417969 431.589844 513.785156 C 431.007812 512.152344 430.464844 510.503906 429.960938 508.84375 C 429.457031 507.183594 428.996094 505.511719 428.574219 503.828125 C 428.15625 502.140625 427.773438 500.449219 427.4375 498.746094 C 427.097656 497.046875 426.804688 495.335938 426.550781 493.617188 C 426.296875 491.902344 426.082031 490.179688 425.914062 488.453125 C 425.742188 486.726562 425.617188 484.996094 425.53125 483.261719 C 425.445312 481.527344 425.402344 479.792969 425.402344 478.058594 C 425.402344 476.320312 425.445312 474.585938 425.53125 472.851562 C 425.617188 471.121094 425.742188 469.390625 425.914062 467.664062 C 426.082031 465.933594 426.296875 464.210938 426.550781 462.496094 C 426.804688 460.777344 427.097656 459.070312 427.4375 457.367188 C 427.773438 455.664062 428.15625 453.972656 428.574219 452.289062 C 428.996094 450.605469 429.457031 448.933594 429.960938 447.269531 C 430.464844 445.609375 431.007812 443.964844 431.589844 442.328125 C 432.171875 440.695312 432.796875 439.074219 433.460938 437.472656 C 434.121094 435.867188 434.824219 434.28125 435.566406 432.714844 C 436.304688 431.144531 437.082031 429.59375 437.898438 428.0625 C 438.714844 426.53125 439.570312 425.023438 440.460938 423.535156 C 441.351562 422.046875 442.277344 420.578125 443.238281 419.136719 C 444.203125 417.695312 445.199219 416.273438 446.230469 414.882812 C 447.261719 413.488281 448.328125 412.117188 449.425781 410.777344 C 450.523438 409.4375 451.65625 408.121094 452.820312 406.835938 C 453.984375 405.550781 455.175781 404.292969 456.402344 403.066406 C 457.625 401.839844 458.878906 400.640625 460.164062 399.476562 C 461.445312 398.3125 462.757812 397.175781 464.097656 396.078125 C 465.433594 394.976562 466.800781 393.90625 468.191406 392.875 C 469.582031 391.839844 471 390.839844 472.4375 389.875 C 473.878906 388.914062 475.339844 387.984375 476.828125 387.09375 C 478.3125 386.199219 479.820312 385.34375 481.347656 384.527344 C 482.875 383.707031 484.421875 382.929688 485.988281 382.1875 C 487.550781 381.445312 489.136719 380.742188 490.734375 380.078125 C 492.335938 379.414062 493.949219 378.789062 495.582031 378.203125 C 497.210938 377.617188 498.855469 377.074219 500.515625 376.570312 C 502.171875 376.066406 503.839844 375.605469 505.519531 375.183594 C 507.199219 374.761719 508.890625 374.378906 510.589844 374.042969 C 512.289062 373.703125 513.992188 373.40625 515.707031 373.152344 C 517.421875 372.898438 519.136719 372.683594 520.863281 372.515625 C 522.585938 372.34375 524.3125 372.214844 526.042969 372.132812 C 527.773438 372.046875 529.503906 372.003906 531.234375 372.003906 C 532.96875 372.003906 534.699219 372.046875 536.429688 372.132812 C 538.160156 372.214844 539.886719 372.34375 541.609375 372.515625 C 543.332031 372.683594 545.050781 372.898438 546.765625 373.152344 C 548.476562 373.40625 550.183594 373.703125 551.882812 374.042969 C 553.582031 374.378906 555.269531 374.761719 556.949219 375.183594 C 558.628906 375.605469 560.300781 376.066406 561.957031 376.570312 C 563.613281 377.074219 565.257812 377.617188 566.890625 378.203125 C 568.519531 378.789062 570.136719 379.414062 571.734375 380.078125 C 573.335938 380.742188 574.917969 381.445312 576.484375 382.1875 C 578.050781 382.929688 579.597656 383.707031 581.125 384.527344 C 582.652344 385.34375 584.15625 386.199219 585.644531 387.09375 C 587.128906 387.984375 588.59375 388.914062 590.03125 389.875 C 591.472656 390.839844 592.886719 391.839844 594.277344 392.875 C 595.671875 393.90625 597.035156 394.976562 598.375 396.078125 C 599.714844 397.175781 601.023438 398.3125 602.308594 399.476562 C 603.589844 400.640625 604.84375 401.839844 606.070312 403.066406 C 607.292969 404.292969 608.488281 405.550781 609.652344 406.835938 C 610.816406 408.121094 611.945312 409.4375 613.042969 410.777344 C 614.144531 412.117188 615.207031 413.488281 616.238281 414.882812 C 617.273438 416.273438 618.269531 417.695312 619.230469 419.136719 C 620.195312 420.578125 621.121094 422.046875 622.011719 423.535156 C 622.902344 425.023438 623.753906 426.53125 624.570312 428.0625 C 625.386719 429.59375 626.164062 431.144531 626.90625 432.714844 C 627.648438 434.28125 628.347656 435.867188 629.011719 437.472656 C 629.675781 439.074219 630.296875 440.695312 630.878906 442.328125 C 631.464844 443.964844 632.007812 445.609375 632.511719 447.269531 C 633.011719 448.933594 633.472656 450.605469 633.894531 452.289062 C 634.316406 453.972656 634.695312 455.664062 635.035156 457.367188 C 635.371094 459.070312 635.667969 460.777344 635.921875 462.496094 C 636.175781 464.210938 636.386719 465.933594 636.558594 467.664062 C 636.726562 469.390625 636.855469 471.121094 636.941406 472.851562 C 637.023438 474.585938 637.066406 476.320312 637.066406 478.058594 Z M 637.066406 478.058594 "/><path style=" stroke:none;fill-rule:nonzero;fill:#78d8fa;fill-opacity:1;" d="M 620.234375 479.039062 C 620.234375 480.511719 620.195312 481.980469 620.125 483.453125 C 620.050781 484.925781 619.945312 486.394531 619.800781 487.859375 C 619.65625 489.324219 619.476562 490.785156 619.261719 492.242188 C 619.046875 493.699219 618.792969 495.152344 618.507812 496.59375 C 618.21875 498.039062 617.898438 499.476562 617.542969 500.90625 C 617.183594 502.335938 616.792969 503.753906 616.367188 505.164062 C 615.9375 506.574219 615.476562 507.96875 614.984375 509.355469 C 614.488281 510.742188 613.957031 512.117188 613.394531 513.480469 C 612.832031 514.839844 612.238281 516.1875 611.609375 517.515625 C 610.980469 518.847656 610.320312 520.164062 609.628906 521.460938 C 608.933594 522.761719 608.210938 524.042969 607.457031 525.304688 C 606.699219 526.570312 605.914062 527.8125 605.097656 529.039062 C 604.28125 530.261719 603.433594 531.46875 602.558594 532.648438 C 601.683594 533.832031 600.777344 534.992188 599.847656 536.132812 C 598.914062 537.269531 597.953125 538.386719 596.96875 539.476562 C 595.980469 540.570312 594.96875 541.636719 593.929688 542.675781 C 592.886719 543.71875 591.824219 544.734375 590.734375 545.722656 C 589.644531 546.710938 588.535156 547.671875 587.398438 548.609375 C 586.261719 549.542969 585.101562 550.449219 583.921875 551.324219 C 582.742188 552.203125 581.539062 553.050781 580.316406 553.871094 C 579.097656 554.6875 577.855469 555.476562 576.59375 556.234375 C 575.332031 556.988281 574.054688 557.714844 572.757812 558.410156 C 571.460938 559.105469 570.148438 559.765625 568.820312 560.394531 C 567.492188 561.027344 566.148438 561.621094 564.789062 562.1875 C 563.433594 562.75 562.0625 563.28125 560.679688 563.777344 C 559.292969 564.273438 557.898438 564.734375 556.492188 565.160156 C 555.085938 565.589844 553.667969 565.980469 552.242188 566.339844 C 550.816406 566.699219 549.382812 567.019531 547.941406 567.308594 C 546.5 567.59375 545.054688 567.847656 543.601562 568.0625 C 542.144531 568.277344 540.6875 568.460938 539.226562 568.601562 C 537.761719 568.746094 536.296875 568.855469 534.828125 568.929688 C 533.359375 569 531.890625 569.035156 530.421875 569.035156 C 528.953125 569.035156 527.484375 569 526.015625 568.929688 C 524.546875 568.855469 523.082031 568.746094 521.617188 568.601562 C 520.15625 568.460938 518.699219 568.277344 517.242188 568.0625 C 515.789062 567.847656 514.34375 567.59375 512.902344 567.308594 C 511.460938 567.019531 510.023438 566.699219 508.597656 566.339844 C 507.171875 565.980469 505.757812 565.589844 504.351562 565.160156 C 502.945312 564.734375 501.550781 564.273438 500.164062 563.777344 C 498.78125 563.28125 497.410156 562.75 496.050781 562.1875 C 494.695312 561.621094 493.351562 561.027344 492.023438 560.394531 C 490.695312 559.765625 489.382812 559.105469 488.085938 558.410156 C 486.789062 557.714844 485.511719 556.988281 484.25 556.230469 C 482.988281 555.476562 481.746094 554.6875 480.527344 553.871094 C 479.304688 553.050781 478.101562 552.203125 476.921875 551.324219 C 475.742188 550.449219 474.582031 549.542969 473.445312 548.609375 C 472.308594 547.671875 471.199219 546.710938 470.109375 545.722656 C 469.019531 544.734375 467.957031 543.71875 466.914062 542.675781 C 465.875 541.636719 464.863281 540.570312 463.875 539.476562 C 462.890625 538.386719 461.929688 537.269531 460.996094 536.132812 C 460.066406 534.992188 459.160156 533.832031 458.285156 532.648438 C 457.410156 531.46875 456.5625 530.261719 455.746094 529.039062 C 454.929688 527.8125 454.144531 526.570312 453.386719 525.304688 C 452.632812 524.042969 451.910156 522.761719 451.214844 521.460938 C 450.523438 520.164062 449.863281 518.847656 449.234375 517.515625 C 448.605469 516.1875 448.011719 514.839844 447.449219 513.480469 C 446.886719 512.117188 446.355469 510.742188 445.859375 509.355469 C 445.367188 507.96875 444.90625 506.574219 444.476562 505.164062 C 444.050781 503.753906 443.660156 502.335938 443.300781 500.90625 C 442.945312 499.476562 442.625 498.039062 442.335938 496.59375 C 442.050781 495.152344 441.796875 493.699219 441.582031 492.242188 C 441.367188 490.785156 441.1875 489.324219 441.042969 487.859375 C 440.898438 486.394531 440.792969 484.925781 440.71875 483.453125 C 440.648438 481.980469 440.609375 480.511719 440.609375 479.039062 C 440.609375 477.5625 440.648438 476.09375 440.71875 474.621094 C 440.792969 473.148438 440.898438 471.683594 441.042969 470.214844 C 441.1875 468.75 441.367188 467.289062 441.582031 465.832031 C 441.796875 464.375 442.050781 462.925781 442.335938 461.480469 C 442.625 460.035156 442.945312 458.597656 443.300781 457.167969 C 443.660156 455.742188 444.050781 454.320312 444.476562 452.910156 C 444.90625 451.503906 445.367188 450.105469 445.859375 448.71875 C 446.355469 447.332031 446.886719 445.957031 447.449219 444.597656 C 448.011719 443.234375 448.605469 441.890625 449.234375 440.558594 C 449.863281 439.226562 450.523438 437.910156 451.214844 436.613281 C 451.910156 435.3125 452.632812 434.03125 453.386719 432.769531 C 454.144531 431.503906 454.929688 430.261719 455.746094 429.035156 C 456.5625 427.8125 457.410156 426.609375 458.285156 425.425781 C 459.160156 424.242188 460.066406 423.082031 460.996094 421.941406 C 461.929688 420.804688 462.890625 419.6875 463.875 418.597656 C 464.863281 417.507812 465.875 416.441406 466.914062 415.398438 C 467.957031 414.355469 469.019531 413.339844 470.109375 412.351562 C 471.199219 411.363281 472.308594 410.402344 473.445312 409.46875 C 474.582031 408.53125 475.742188 407.625 476.921875 406.75 C 478.101562 405.871094 479.304688 405.023438 480.527344 404.207031 C 481.746094 403.386719 482.988281 402.597656 484.25 401.84375 C 485.511719 401.085938 486.789062 400.359375 488.085938 399.664062 C 489.382812 398.96875 490.695312 398.308594 492.023438 397.679688 C 493.351562 397.050781 494.695312 396.453125 496.050781 395.890625 C 497.410156 395.324219 498.78125 394.796875 500.164062 394.300781 C 501.550781 393.800781 502.945312 393.339844 504.351562 392.914062 C 505.757812 392.484375 507.171875 392.09375 508.597656 391.734375 C 510.023438 391.378906 511.460938 391.054688 512.902344 390.765625 C 514.34375 390.480469 515.789062 390.226562 517.242188 390.011719 C 518.699219 389.796875 520.15625 389.617188 521.617188 389.472656 C 523.082031 389.328125 524.546875 389.21875 526.015625 389.144531 C 527.484375 389.074219 528.953125 389.039062 530.421875 389.039062 C 531.890625 389.039062 533.359375 389.074219 534.828125 389.144531 C 536.296875 389.21875 537.761719 389.328125 539.226562 389.472656 C 540.6875 389.617188 542.144531 389.796875 543.601562 390.011719 C 545.054688 390.226562 546.5 390.480469 547.941406 390.765625 C 549.382812 391.054688 550.816406 391.378906 552.246094 391.734375 C 553.667969 392.09375 555.085938 392.484375 556.492188 392.914062 C 557.898438 393.339844 559.292969 393.800781 560.679688 394.300781 C 562.0625 394.796875 563.433594 395.324219 564.789062 395.890625 C 566.148438 396.453125 567.492188 397.050781 568.820312 397.679688 C 570.148438 398.308594 571.460938 398.96875 572.757812 399.664062 C 574.054688 400.359375 575.332031 401.085938 576.59375 401.84375 C 577.855469 402.597656 579.097656 403.386719 580.316406 404.207031 C 581.539062 405.023438 582.742188 405.871094 583.921875 406.75 C 585.101562 407.625 586.261719 408.53125 587.398438 409.46875 C 588.535156 410.402344 589.644531 411.363281 590.734375 412.351562 C 591.824219 413.339844 592.886719 414.355469 593.929688 415.398438 C 594.96875 416.441406 595.980469 417.507812 596.96875 418.597656 C 597.953125 419.6875 598.914062 420.804688 599.847656 421.941406 C 600.777344 423.082031 601.683594 424.242188 602.558594 425.425781 C 603.433594 426.609375 604.28125 427.8125 605.097656 429.035156 C 605.914062 430.261719 606.699219 431.503906 607.457031 432.769531 C 608.210938 434.03125 608.933594 435.3125 609.628906 436.613281 C 610.320312 437.910156 610.980469 439.226562 611.609375 440.558594 C 612.238281 441.890625 612.832031 443.234375 613.394531 444.597656 C 613.957031 445.957031 614.488281 447.332031 614.984375 448.71875 C 615.476562 450.105469 615.9375 451.503906 616.367188 452.910156 C 616.792969 454.320312 617.183594 455.742188 617.542969 457.167969 C 617.898438 458.597656 618.21875 460.035156 618.507812 461.480469 C 618.792969 462.925781 619.046875 464.375 619.261719 465.832031 C 619.476562 467.289062 619.65625 468.75 619.800781 470.214844 C 619.945312 471.683594 620.050781 473.148438 620.125 474.621094 C 620.195312 476.09375 620.234375 477.5625 620.234375 479.039062 Z M 620.234375 479.039062 "/><path style=" stroke:none;fill-rule:nonzero;fill:#b08df8;fill-opacity:1;" d="M 665.746094 698.191406 L 645.203125 710.074219 C 641.269531 712.351562 636.195312 710.988281 633.921875 707.046875 L 571.699219 599.042969 C 570.355469 596.714844 570.289062 593.988281 571.265625 591.679688 L 570.664062 592.039062 L 550.984375 599.964844 C 550.984375 599.964844 544.707031 585.957031 544.308594 584.113281 L 553.09375 582.355469 L 570.550781 576.546875 L 587.835938 567.550781 L 602.210938 556.746094 L 612.566406 545.914062 L 618.097656 552.742188 L 618.097656 563.546875 L 599.429688 574.757812 C 602.269531 574.78125 605.03125 576.253906 606.542969 578.882812 L 668.769531 686.886719 C 671.042969 690.828125 669.679688 695.914062 665.746094 698.191406 Z M 665.746094 698.191406 "/><path style=" stroke:none;fill-rule:nonzero;fill:#ecb92a;fill-opacity:1;" d="M 488.816406 451.882812 L 511.074219 451.882812 L 511.074219 520.96875 L 488.816406 520.96875 Z M 521.289062 520.96875 L 544.308594 520.96875 L 544.308594 432.09375 L 521.289062 432.09375 Z M 555.582031 448.941406 L 555.582031 520.96875 L 575.289062 520.96875 L 575.289062 448.941406 Z M 555.582031 448.941406 "/><g clip-rule="nonzero" clip-path="url(#4277ad619a)"><path style=" stroke:none;fill-rule:nonzero;fill:#000000;fill-opacity:1;" d="M 612.597656 432.527344 C 600.574219 410.578125 580.738281 394.636719 556.75 387.636719 C 532.757812 380.640625 507.484375 383.421875 485.582031 395.46875 C 440.367188 420.34375 423.777344 477.445312 448.601562 522.753906 C 465.605469 553.789062 497.691406 571.363281 530.757812 571.363281 C 545.960938 571.363281 561.375 567.644531 575.617188 559.808594 C 620.832031 534.9375 637.421875 477.835938 612.597656 432.527344 Z M 572.6875 554.464844 C 559.371094 561.792969 544.964844 565.265625 530.746094 565.265625 C 499.835938 565.265625 469.832031 548.832031 453.933594 519.816406 C 430.726562 477.457031 446.238281 424.074219 488.511719 400.816406 C 501.59375 393.621094 515.957031 389.957031 530.476562 389.957031 C 538.6875 389.957031 546.945312 391.128906 555.046875 393.492188 C 577.476562 400.035156 596.019531 414.941406 607.261719 435.460938 C 618.503906 455.984375 621.097656 479.664062 614.570312 502.136719 C 608.039062 524.617188 593.164062 543.199219 572.6875 554.464844 Z M 483.050781 432.09375 L 469.050781 432.09375 L 476.050781 420.273438 Z M 583.332031 518.789062 L 580.363281 518.789062 L 580.363281 445.785156 L 551.601562 445.785156 L 551.601562 518.789062 L 546.566406 518.789062 L 546.566406 427.28125 L 517.800781 427.28125 L 517.800781 518.789062 L 512.988281 518.789062 L 512.988281 450.851562 L 486.242188 450.851562 L 486.242188 518.789062 L 479.09375 518.789062 L 479.09375 432.09375 L 473.007812 432.09375 L 473.007812 524.886719 L 583.332031 524.886719 L 583.332031 528.664062 L 595.457031 521.839844 L 583.332031 515.015625 Z M 506.90625 518.789062 L 492.328125 518.789062 L 492.328125 456.949219 L 506.90625 456.949219 Z M 540.480469 518.789062 L 523.886719 518.789062 L 523.886719 433.382812 L 540.480469 433.382812 Z M 574.28125 517.539062 L 557.6875 517.539062 L 557.6875 451.882812 L 574.28125 451.882812 Z M 669.890625 686.921875 L 607.8125 573.613281 L 617.003906 568.554688 C 619.609375 567.121094 621.503906 564.75 622.335938 561.878906 C 623.171875 559.003906 622.84375 555.984375 621.414062 553.375 L 618.832031 548.65625 C 618.078125 547.28125 617.070312 546.136719 615.90625 545.230469 C 642.136719 511.894531 647.566406 464.691406 625.929688 425.195312 C 597.070312 372.519531 530.828125 353.191406 478.261719 382.113281 C 425.699219 411.03125 406.414062 477.410156 435.269531 530.085938 C 455.039062 566.167969 492.34375 586.601562 530.78125 586.601562 C 534.417969 586.601562 538.066406 586.40625 541.710938 586.035156 C 541.847656 587.511719 542.273438 588.980469 543.027344 590.359375 L 545.613281 595.078125 C 547.640625 598.777344 551.46875 600.875 555.414062 600.875 C 557.226562 600.875 559.0625 600.429688 560.765625 599.496094 L 569.957031 594.441406 L 632.03125 707.75 C 633.460938 710.359375 635.828125 712.257812 638.695312 713.09375 C 639.734375 713.394531 640.792969 713.546875 641.84375 713.546875 C 643.695312 713.546875 645.519531 713.082031 647.179688 712.167969 L 665.480469 702.101562 C 670.871094 699.132812 672.851562 692.324219 669.890625 686.921875 Z M 530.773438 580.503906 C 494.488281 580.5 459.265625 561.210938 440.605469 527.152344 C 413.363281 477.425781 431.570312 414.757812 481.191406 387.457031 C 496.828125 378.855469 513.734375 374.777344 530.425781 374.777344 C 566.710938 374.777344 601.933594 394.070312 620.59375 428.128906 C 647.835938 477.855469 629.628906 540.523438 580.003906 567.824219 C 564.371094 576.425781 547.460938 580.503906 530.773438 580.503906 Z M 557.835938 594.152344 C 555.382812 595.5 552.292969 594.597656 550.949219 592.140625 L 548.363281 587.425781 C 547.992188 586.746094 547.792969 586.007812 547.753906 585.253906 C 559.773438 583.34375 571.667969 579.363281 582.933594 573.167969 C 594.203125 566.96875 603.933594 559.046875 611.996094 549.910156 C 612.597656 550.335938 613.117188 550.898438 613.496094 551.589844 L 616.082031 556.308594 C 616.726562 557.492188 616.875 558.863281 616.496094 560.171875 C 616.113281 561.480469 615.253906 562.558594 614.074219 563.207031 Z M 664.96875 693.71875 C 664.589844 695.03125 663.730469 696.109375 662.550781 696.757812 L 644.253906 706.824219 C 643.074219 707.472656 641.703125 707.621094 640.398438 707.238281 C 639.089844 706.859375 638.015625 705.996094 637.367188 704.816406 L 575.289062 591.503906 L 602.476562 576.546875 L 664.554688 689.855469 C 665.203125 691.039062 665.351562 692.410156 664.96875 693.71875 Z M 664.96875 693.71875 "/></g><g clip-rule="nonzero" clip-path="url(#cf46b0650f)"><path style=" stroke:none;fill-rule:nonzero;fill:#ecb92a;fill-opacity:1;" d="M 459.457031 430.992188 C 459.457031 432.109375 455.722656 433.105469 449.910156 433.75 C 443.09375 434.507812 437.8125 440.039062 437.289062 446.886719 C 436.664062 455.046875 435.574219 460.457031 434.332031 460.457031 C 433.089844 460.457031 432 455.046875 431.375 446.886719 C 430.851562 440.035156 425.570312 434.507812 418.753906 433.75 C 412.941406 433.105469 409.207031 432.109375 409.207031 430.992188 C 409.207031 429.871094 412.941406 428.875 418.753906 428.230469 C 425.570312 427.476562 430.851562 421.945312 431.375 415.097656 C 432 406.933594 433.089844 401.527344 434.332031 401.527344 C 435.574219 401.527344 436.664062 406.9375 437.289062 415.097656 C 437.8125 421.945312 443.09375 427.476562 449.910156 428.230469 C 455.722656 428.875 459.457031 429.871094 459.457031 430.992188 Z M 661.265625 527.019531 C 657.214844 526.574219 654.074219 523.285156 653.761719 519.210938 C 653.390625 514.359375 652.742188 511.144531 652.003906 511.144531 C 651.265625 511.144531 650.617188 514.359375 650.246094 519.210938 C 649.9375 523.285156 646.792969 526.574219 642.742188 527.019531 C 639.285156 527.402344 637.066406 527.996094 637.066406 528.660156 C 637.066406 529.328125 639.285156 529.917969 642.742188 530.300781 C 646.792969 530.75 649.9375 534.039062 650.246094 538.113281 C 650.617188 542.964844 651.265625 546.179688 652.003906 546.179688 C 652.742188 546.179688 653.390625 542.964844 653.761719 538.113281 C 654.074219 534.039062 657.214844 530.75 661.265625 530.300781 C 664.722656 529.917969 666.941406 529.328125 666.941406 528.660156 C 666.941406 527.996094 664.722656 527.40625 661.265625 527.019531 Z M 408.742188 462 C 405.625 461.652344 403.207031 459.121094 402.96875 455.988281 C 402.683594 452.25 402.183594 449.777344 401.617188 449.777344 C 401.046875 449.777344 400.550781 452.253906 400.261719 455.988281 C 400.023438 459.121094 397.605469 461.652344 394.488281 462 C 391.824219 462.292969 390.117188 462.75 390.117188 463.261719 C 390.117188 463.773438 391.824219 464.230469 394.488281 464.523438 C 397.605469 464.871094 400.023438 467.402344 400.261719 470.535156 C 400.546875 474.269531 401.046875 476.746094 401.613281 476.746094 C 402.183594 476.746094 402.683594 474.269531 402.96875 470.535156 C 403.207031 467.402344 405.625 464.871094 408.742188 464.523438 C 411.40625 464.230469 413.113281 463.773438 413.113281 463.261719 C 413.113281 462.75 411.40625 462.292969 408.742188 462 Z M 408.742188 462 "/></g></g></svg>