<svg xmlns="http://www.w3.org/2000/svg" xmlns:xlink="http://www.w3.org/1999/xlink" width="1080" zoomAndPan="magnify" viewBox="0 0 810 809.999993" height="1080" preserveAspectRatio="xMidYMid meet" version="1.2"><defs><clipPath id="796d740fb4"><path d="M 123.234375 97.441406 L 478.734375 97.441406 L 478.734375 712.441406 L 123.234375 712.441406 Z M 123.234375 97.441406 "/></clipPath><clipPath id="aa23091dcd"><rect x="0" width="356" y="0" height="616"/></clipPath><clipPath id="4f95083c28"><path d="M 421 427.554688 L 727 427.554688 L 727 676.554688 L 421 676.554688 Z M 421 427.554688 "/></clipPath></defs><g id="9c1198a120"><rect x="0" width="810" y="0" height="809.999993" style="fill:#ffffff;fill-opacity:1;stroke:none;"/><rect x="0" width="810" y="0" height="809.999993" style="fill:#ffffff;fill-opacity:1;stroke:none;"/><g clip-rule="nonzero" clip-path="url(#796d740fb4)"><g transform="matrix(1,0,0,1,123,97)"><g clip-path="url(#aa23091dcd)"><path style=" stroke:none;fill-rule:evenodd;fill:#71422e;fill-opacity:1;" d="M 278.175781 323.027344 C 277.308594 320.554688 276.46875 318.101562 275.964844 315.628906 C 274.277344 307.867188 277.574219 301.882812 282.746094 296.566406 C 285.007812 294.285156 287.632812 292.433594 289.703125 289.933594 C 297.757812 280.101562 298.550781 268.953125 295.1875 257.175781 C 293.621094 251.859375 290.976562 247.054688 287.730469 242.609375 C 285.105469 239.050781 283.234375 235.160156 282.316406 230.710938 C 280.875 223.714844 283.328125 217.972656 287.585938 212.875 C 290.160156 209.847656 293.023438 207.203125 295.527344 204.175781 C 302.601562 195.617188 304.863281 185.738281 303.078125 174.804688 C 302.164062 168.722656 301.203125 162.664062 300.261719 156.582031 C 299.203125 149.832031 302.164062 141.488281 309.308594 138.050781 C 320.691406 132.574219 326.292969 122.453125 329.304688 110.503906 C 332.839844 96.277344 329.929688 82.816406 323.984375 69.886719 C 318.789062 58.613281 311.644531 48.804688 303.007812 40.035156 C 285.921875 22.703125 260.710938 7.875 236.457031 4.871094 C 205.0625 0.929688 174.171875 15.109375 152.300781 37.03125 C 136.46875 52.898438 131.082031 73.421875 119.558594 91.882812 C 112.703125 102.9375 104.476562 112.480469 92.011719 117.261719 C 89.269531 118.320312 86.816406 119.933594 84.335938 121.46875 C 72.71875 128.535156 66.054688 139.085938 63.359375 152.402344 C 62.566406 156.296875 62.179688 160.191406 61.335938 164.007812 C 59.242188 173.40625 53.855469 180.285156 45.53125 184.800781 C 39.347656 188.140625 33.019531 191.410156 27.773438 196.21875 C 13.675781 209.097656 9.105469 224.890625 14.304688 243.519531 C 15.507812 247.773438 17.023438 252.003906 17.71875 256.425781 C 18.78125 263.179688 16.855469 269.238281 12.910156 274.597656 C 9.707031 278.972656 6.847656 283.539062 4.96875 288.683594 C -0.0351562 302.695312 4.003906 318.703125 14.976562 328.605469 C 19.835938 332.957031 25.273438 336.726562 29.75 341.605469 C 32.539062 344.683594 34.992188 348 36.4375 351.96875 C 38.984375 359.007812 36.824219 364.320312 30.011719 366.917969 C 27.824219 367.734375 27.96875 368.648438 29.144531 370.113281 C 33.671875 375.714844 39.660156 377.878906 46.585938 377.683594 C 51.6875 377.589844 56.210938 375.832031 60.347656 372.757812 C 65.929688 381.839844 73.292969 387.347656 84.355469 385.519531 C 103.050781 384.964844 138.203125 363.308594 138.203125 363.308594 C 138.203125 363.308594 246.898438 365.1875 247.015625 365.1875 C 251.371094 365.234375 258.515625 360.472656 262.003906 358.429688 C 269.269531 354.203125 278.390625 346.800781 280.3125 338.167969 C 281.496094 333.003906 279.859375 327.980469 278.175781 323.027344 Z M 278.175781 323.027344 "/><path style=" stroke:none;fill-rule:nonzero;fill:#633120;fill-opacity:1;" d="M 260.921875 293.539062 C 260.953125 293.539062 260.980469 293.539062 261.011719 293.539062 C 262.050781 293.492188 262.851562 292.613281 262.804688 291.578125 C 262.503906 285.152344 266.054688 280.65625 269.808594 275.890625 C 273.347656 271.40625 277.007812 266.765625 277.359375 260.398438 C 277.609375 254.617188 275.207031 249.121094 273.089844 244.265625 L 272.824219 243.660156 C 272.328125 242.511719 271.792969 241.335938 271.25 240.140625 C 267.207031 231.246094 263.023438 222.050781 268.488281 213.765625 C 271.929688 208.558594 276.507812 203.675781 282.488281 198.832031 C 283.296875 198.179688 283.417969 196.996094 282.765625 196.191406 C 282.113281 195.382812 280.925781 195.261719 280.121094 195.914062 C 273.84375 201.003906 269.007812 206.167969 265.347656 211.695312 C 258.742188 221.71875 263.566406 232.332031 267.828125 241.695312 C 268.363281 242.871094 268.886719 244.027344 269.378906 245.160156 L 269.644531 245.769531 C 271.699219 250.46875 273.816406 255.324219 273.605469 260.21875 C 273.320312 265.375 270.179688 269.351562 266.859375 273.570312 C 262.84375 278.660156 258.683594 283.933594 259.046875 291.753906 C 259.09375 292.753906 259.925781 293.539062 260.921875 293.539062 Z M 260.921875 293.539062 "/><path style=" stroke:none;fill-rule:nonzero;fill:#633120;fill-opacity:1;" d="M 247.9375 242.707031 C 248.246094 242.707031 248.554688 242.628906 248.847656 242.472656 C 249.753906 241.96875 250.082031 240.828125 249.578125 239.921875 C 239.160156 221.128906 249.933594 209.863281 250.398438 209.390625 C 251.125 208.652344 251.121094 207.464844 250.386719 206.738281 C 249.648438 206.011719 248.464844 206.011719 247.738281 206.742188 C 247.601562 206.875 234.460938 220.390625 246.292969 241.738281 C 246.632812 242.355469 247.273438 242.707031 247.9375 242.707031 Z M 247.9375 242.707031 "/><path style=" stroke:none;fill-rule:evenodd;fill:#fed2b9;fill-opacity:1;" d="M 222 107.527344 C 237.5625 109.066406 248.273438 105.796875 263.667969 102.386719 C 278.703125 99.066406 292.105469 92.628906 302.957031 81.472656 C 304.570312 79.792969 306.203125 78.132812 307.839844 76.476562 C 309.042969 75.273438 309.789062 75.632812 310.222656 77.222656 C 310.632812 78.6875 311.089844 80.128906 311.496094 81.597656 C 312.652344 84.3125 312.460938 87.191406 312.652344 89.984375 C 312.964844 96.113281 312.363281 102.097656 310.078125 107.867188 C 309.957031 108.15625 309.789062 108.394531 309.695312 108.707031 C 307.117188 116.542969 303.726562 123.871094 297.640625 129.738281 C 291.265625 135.914062 288.953125 143.675781 289.242188 152.449219 C 289.316406 156.296875 289.628906 160.167969 289.820312 163.964844 C 290.015625 168.027344 288.136719 170.023438 284.09375 170.191406 C 281.230469 170.359375 278.390625 169.949219 275.722656 168.84375 C 273.671875 167.980469 272.398438 168.628906 271.292969 170.433594 C 266.265625 178.628906 257.433594 184.394531 250.125 190.382812 C 241.964844 197.019531 233.425781 197.019531 224.332031 192.566406 C 218.484375 189.734375 213.671875 185.523438 208.835938 181.296875 C 206.261719 183.292969 204.433594 185.933594 202.339844 188.363281 C 200.179688 192.257812 197.574219 195.957031 196.761719 200.480469 C 197.382812 201.148438 197.984375 201.871094 198.589844 202.519531 C 199.046875 202.902344 199.503906 203.265625 199.960938 203.601562 C 201.285156 205.214844 202.679688 206.773438 203.929688 208.433594 C 208.285156 214.222656 212.160156 220.28125 213.71875 227.46875 C 214.589844 231.671875 213.265625 235.421875 207.925781 236.890625 C 203.640625 237.972656 199.601562 237.25 195.605469 236.167969 C 187.375 233.957031 180.351562 229.390625 173.617188 224.414062 C 163.96875 217.207031 154.949219 209.105469 144.578125 202.902344 C 137.527344 198.695312 130.363281 194.898438 121.699219 195.792969 C 121.289062 195.8125 120.78125 195.910156 120.445312 195.453125 C 122.035156 197.449219 144.363281 182.691406 147.007812 180.9375 C 150.664062 178.507812 156.003906 173.582031 158.699219 170.050781 C 163.511719 163.753906 166.570312 156.566406 169.503906 149.28125 C 171.164062 145.195312 172.703125 141.109375 174.628906 137.121094 C 182.878906 119.761719 201.863281 105.53125 222 107.527344 Z M 222 107.527344 "/><path style=" stroke:none;fill-rule:evenodd;fill:#f8a58c;fill-opacity:1;" d="M 208.835938 181.292969 C 206.886719 178.863281 204.894531 176.4375 202.96875 173.890625 C 200.875 171.171875 198.902344 168.3125 197.289062 165.1875 C 195.703125 162.234375 194.257812 159.207031 193.199219 155.429688 C 192.574219 160.867188 193.417969 165.597656 194.476562 170.378906 C 195.703125 176.242188 197.671875 181.796875 200.898438 186.890625 C 201.285156 187.492188 201.671875 188.070312 202.339844 188.359375 C 204.4375 185.929688 206.265625 183.289062 208.835938 181.292969 Z M 208.835938 181.292969 "/><path style=" stroke:none;fill-rule:evenodd;fill:#6e391e;fill-opacity:1;" d="M 279.523438 105.605469 C 275.480469 105.652344 272.59375 106.085938 269.707031 106.757812 C 268.746094 106.976562 267.59375 107.3125 267.78125 108.636719 C 267.925781 110.054688 269.105469 109.957031 270.140625 109.8125 C 274.664062 109.261719 279.1875 109.117188 283.613281 110.777344 C 285.972656 111.6875 288.308594 112.648438 290.542969 113.921875 C 291.3125 114.402344 292.15625 114.984375 292.972656 113.921875 C 293.765625 112.960938 293.164062 112.144531 292.5625 111.472656 C 288.808594 107.285156 283.875 105.847656 279.523438 105.605469 Z M 279.523438 105.605469 "/><path style=" stroke:none;fill-rule:evenodd;fill:#3e2433;fill-opacity:1;" d="M 269.609375 139.015625 C 273.652344 139.421875 278.34375 136.371094 279.570312 132.476562 C 279.8125 131.683594 280.316406 130.503906 279.210938 130.023438 C 278.34375 129.613281 277.378906 130.144531 276.777344 130.9375 C 276.46875 131.25 276.203125 131.683594 276.007812 132.113281 C 274.179688 136.390625 269.5625 135.3125 267.445312 133.027344 C 266.027344 131.515625 265.277344 129.710938 264.992188 127.667969 C 264.898438 126.804688 264.585938 125.839844 263.5 125.914062 C 262.585938 125.9375 262.054688 126.632812 261.839844 127.546875 C 260.660156 132.160156 264.992188 138.554688 269.609375 139.015625 Z M 269.609375 139.015625 "/><path style=" stroke:none;fill-rule:evenodd;fill:#ff9aaa;fill-opacity:1;" d="M 57.246094 580.425781 C 62.273438 540.457031 64.339844 499.882812 76.46875 461.191406 C 79.957031 450.109375 84 439.195312 88.019531 428.332031 C 89.003906 425.542969 99.710938 401.050781 98.027344 399.75 C 96.4375 398.503906 95.019531 397.113281 93.722656 395.644531 C 80.078125 379.851562 80.605469 357.328125 80.175781 337.71875 C 79.910156 325.796875 80.605469 313.921875 80.945312 302 C 81.1875 294.117188 81.523438 286.257812 81.859375 278.375 C 82.292969 268.328125 83.398438 258.328125 84.792969 248.355469 C 86.574219 235.617188 90.160156 223.40625 98.121094 212.925781 C 103.964844 205.214844 110.96875 198.914062 119.96875 195.042969 C 128.195312 194.179688 135.558594 196.699219 142.535156 200.765625 C 148.1875 204.128906 153.601562 207.832031 158.820312 211.847656 C 166.230469 217.613281 173.28125 223.816406 181.269531 228.71875 C 188.050781 232.898438 195.125 236.433594 203.304688 236.675781 C 210.1875 236.863281 214.902344 233.476562 212.542969 226 C 212.425781 225.496094 212.304688 225.066406 212.160156 224.582031 C 209.898438 217.65625 205.710938 211.816406 201.140625 206.167969 C 200.5625 205.421875 199.601562 204.800781 199.914062 203.597656 C 200.828125 202.902344 201.695312 203.359375 202.558594 203.71875 C 207.152344 205.808594 211.507812 208.335938 215.5 211.433594 C 222.503906 216.867188 227.722656 223.910156 232.296875 231.40625 C 237.421875 239.722656 242.617188 247.96875 249.015625 255.398438 C 251.902344 258.714844 254.648438 262.195312 257.269531 265.730469 C 267.734375 280.007812 268.265625 297.195312 258.542969 312 C 257.675781 313.367188 257.703125 314.089844 259.167969 314.957031 C 281.351562 327.113281 301.296875 346.96875 314.09375 368.695312 C 317.847656 375.140625 321.09375 381.941406 323.8125 388.914062 C 331.222656 408.042969 333.457031 427.730469 329.875 448.066406 C 327.46875 461.789062 322.972656 474.839844 317.726562 487.628906 C 312.503906 500.316406 308.894531 513.296875 308.800781 527.117188 C 308.703125 541.347656 310.484375 555.335938 312.238281 569.371094 C 314.117188 584.605469 316.402344 599.753906 319.097656 614.867188 L 52.792969 614.867188 C 54.335938 603.382812 55.800781 591.917969 57.246094 580.425781 Z M 57.246094 580.425781 "/><path style=" stroke:none;fill-rule:evenodd;fill:#fed2b9;fill-opacity:1;" d="M 197.074219 452.269531 C 204.988281 444.121094 208.980469 434.386719 209.367188 423.089844 C 209.367188 422.441406 209.199219 421.597656 210.1875 421.480469 C 211.296875 422.347656 212.640625 422.347656 213.9375 422.441406 C 218.292969 422.824219 222.359375 421.527344 226.449219 420.421875 C 231.789062 418.882812 236.984375 417.03125 242.566406 416.3125 C 249.640625 415.375 256.667969 414.605469 263.714844 413.742188 C 265.472656 413.546875 267.347656 413.210938 269.03125 413.859375 C 271.773438 414.964844 271.941406 417.992188 269.320312 420.277344 C 267.058594 422.273438 264.4375 423.808594 261.527344 424.675781 C 257.675781 425.832031 253.777344 426.957031 249.882812 427.96875 C 248.054688 428.449219 248.441406 429.246094 249.351562 430.179688 C 249.761719 430.613281 250.363281 430.878906 250.890625 431.117188 C 257.050781 433.523438 263.308594 435.445312 269.753906 436.9375 C 278.390625 439.003906 287.269531 439.605469 296 441.046875 C 298.140625 441.40625 299.414062 442.539062 299.488281 444.722656 C 299.539062 445.898438 299.128906 446.621094 298.480469 447.125 L 297.398438 449.675781 L 299.609375 450.105469 C 300.835938 450.105469 301.703125 450.871094 302.449219 451.953125 C 303.460938 453.394531 303.003906 454.550781 301.871094 455.65625 C 301.078125 456.449219 300.1875 456.929688 299.152344 457.3125 C 298.335938 457.625 297.515625 457.867188 296.675781 458.058594 L 295.304688 459.644531 L 296.21875 461.976562 L 296.144531 462.074219 C 296.554688 462.335938 296.890625 462.816406 297.082031 463.394531 C 297.613281 464.957031 296.507812 465.894531 295.230469 466.375 C 293.210938 467.191406 291.164062 468.035156 289.074219 468.441406 L 284.382812 471.011719 C 284.382812 471.011719 285.96875 472.121094 285.054688 473.511719 C 285.007812 474.28125 284.285156 474.742188 283.609375 475.050781 C 281.78125 476.082031 279.8125 476.808594 277.742188 477.3125 C 266.578125 480.003906 255.390625 479.835938 244.277344 476.925781 C 232.753906 473.96875 222.40625 468.441406 212.589844 461.882812 C 207.511719 458.492188 202.125 455.558594 196.304688 453.589844 C 196.230469 452.945312 196.714844 452.628906 197.074219 452.269531 Z M 197.074219 452.269531 "/><path style=" stroke:none;fill-rule:nonzero;fill:#e07288;fill-opacity:1;" d="M 136.304688 363.121094 C 137.289062 363.121094 138.203125 362.472656 138.542969 361.511719 C 144.628906 341.152344 151.339844 263.832031 151.582031 260.5625 C 151.726562 259.265625 150.761719 258.15625 149.460938 258.039062 C 148.164062 257.964844 147.054688 258.878906 146.960938 260.132812 C 146.914062 260.96875 140.03125 340.289062 134.0625 360.167969 C 133.679688 361.390625 134.402344 362.664062 135.625 363.074219 C 135.847656 363.097656 136.085938 363.121094 136.304688 363.121094 Z M 136.304688 363.121094 "/><path style=" stroke:none;fill-rule:nonzero;fill:#f8a58c;fill-opacity:1;" d="M 279.167969 452.378906 C 289.910156 452.378906 297.078125 450.398438 297.539062 450.269531 C 298.277344 450.058594 298.707031 449.289062 298.5 448.550781 C 298.289062 447.808594 297.515625 447.378906 296.777344 447.585938 C 296.609375 447.632812 279.652344 452.296875 258.90625 447.117188 C 258.160156 446.9375 257.398438 447.386719 257.214844 448.132812 C 257.027344 448.878906 257.480469 449.636719 258.230469 449.824219 C 265.964844 451.753906 273.128906 452.378906 279.167969 452.378906 Z M 279.167969 452.378906 "/><path style=" stroke:none;fill-rule:nonzero;fill:#f8a58c;fill-opacity:1;" d="M 275.515625 463.105469 C 286.582031 463.105469 294.445312 461.3125 294.949219 461.195312 C 295.699219 461.019531 296.164062 460.269531 295.992188 459.523438 C 295.820312 458.773438 295.066406 458.308594 294.316406 458.484375 C 294.132812 458.527344 275.503906 462.75 255.394531 458.125 C 254.648438 457.949219 253.894531 458.417969 253.722656 459.167969 C 253.550781 459.917969 254.019531 460.667969 254.769531 460.839844 C 262.195312 462.546875 269.351562 463.105469 275.515625 463.105469 Z M 275.515625 463.105469 "/><path style=" stroke:none;fill-rule:nonzero;fill:#f8a58c;fill-opacity:1;" d="M 267.714844 473.171875 C 277.578125 473.171875 285.574219 471.3125 286.078125 471.191406 C 286.828125 471.011719 287.289062 470.261719 287.113281 469.515625 C 286.9375 468.765625 286.183594 468.300781 285.4375 468.480469 C 285.253906 468.523438 267.285156 472.691406 252.359375 468.476562 C 251.621094 468.261719 250.847656 468.695312 250.636719 469.433594 C 250.425781 470.175781 250.859375 470.945312 251.601562 471.15625 C 256.945312 472.667969 262.582031 473.171875 267.714844 473.171875 Z M 267.714844 473.171875 "/><path style=" stroke:none;fill-rule:evenodd;fill:#ff9aaa;fill-opacity:1;" d="M 132.089844 360.214844 C 143.253906 364.875 208.359375 420.132812 208.359375 420.132812 C 208.359375 420.132812 212.011719 445.273438 192.503906 456.644531 C 192.503906 456.644531 123.3125 426.71875 100.3125 399.554688 "/><path style=" stroke:none;fill-rule:nonzero;fill:#e07288;fill-opacity:1;" d="M 192.503906 458.953125 C 192.914062 458.953125 193.34375 458.855469 193.679688 458.613281 C 214.324219 446.621094 210.8125 420.878906 210.667969 419.824219 C 210.570312 419.246094 210.28125 418.742188 209.898438 418.355469 C 207.175781 416.140625 144.363281 362.808594 133.007812 358.097656 C 131.800781 357.570312 130.453125 358.144531 129.929688 359.324219 C 129.445312 360.527344 130.023438 361.898438 131.226562 362.378906 C 139.957031 366.03125 187.570312 405.566406 206.140625 421.359375 C 206.527344 425.519531 207.273438 444.507812 192.332031 454 C 183.433594 450.105469 122.902344 422.65625 102.113281 398.070312 C 101.25 397.085938 99.804688 396.9375 98.84375 397.78125 C 97.832031 398.621094 97.738281 400.089844 98.558594 401.050781 C 121.605469 428.328125 188.75 457.507812 191.589844 458.808594 C 191.902344 458.878906 192.191406 458.953125 192.503906 458.953125 Z M 192.503906 458.953125 "/><path style=" stroke:none;fill-rule:nonzero;fill:#e07288;fill-opacity:1;" d="M 184.179688 333.75 C 184.683594 333.75 185.238281 333.582031 185.644531 333.21875 C 210.1875 313.125 253.730469 316.519531 254.214844 316.566406 C 255.414062 316.664062 256.597656 315.722656 256.691406 314.476562 C 256.8125 313.128906 255.851562 312.046875 254.550781 311.949219 C 252.722656 311.757812 208.695312 308.390625 182.714844 329.640625 C 181.707031 330.433594 181.558594 331.925781 182.402344 332.910156 C 182.878906 333.460938 183.53125 333.75 184.179688 333.75 Z M 184.179688 333.75 "/><path style=" stroke:none;fill-rule:nonzero;fill:#e58076;fill-opacity:1;" d="M 258.882812 178.816406 C 253.972656 175.550781 251.085938 170.765625 250.292969 164.78125 C 249.980469 162.664062 250.941406 162.042969 251.859375 161.898438 C 252.386719 161.800781 252.867188 161.898438 253.207031 162.160156 C 253.949219 162.617188 254.070312 163.605469 254.167969 164.15625 C 254.601562 167.160156 255.660156 169.683594 257.34375 171.917969 C 259.652344 174.972656 262.203125 176.699219 265.90625 177.304688 C 265.089844 178.578125 263.453125 179.636719 262.152344 180.59375 C 261.191406 180.308594 261.839844 180.402344 260.832031 179.949219 C 260.132812 179.585938 259.503906 179.179688 258.882812 178.816406 Z M 258.882812 178.816406 "/><path style=" stroke:none;fill-rule:evenodd;fill:#ffa492;fill-opacity:1;" d="M 246.96875 130.265625 C 239.992188 127.09375 232.199219 128.875 229.335938 134.640625 C 226.835938 140.144531 229.097656 147.378906 236.988281 151.25 C 244.542969 154.832031 252.144531 153.027344 255.03125 147.117188 C 257.628906 141.996094 254.429688 133.578125 246.96875 130.265625 Z M 246.96875 130.265625 "/><path style=" stroke:none;fill-rule:evenodd;fill:#fed2b9;fill-opacity:1;" d="M 182.277344 108.945312 C 178.480469 120.242188 184.683594 133.4375 192.382812 135.382812 C 200.082031 137.183594 206.335938 127.042969 210.113281 115.792969 C 213.890625 104.59375 210.8125 94.042969 203.066406 92.140625 C 195.386719 90.175781 186.035156 97.769531 182.277344 108.945312 Z M 182.277344 108.945312 "/><path style=" stroke:none;fill-rule:evenodd;fill:#f8a58c;fill-opacity:0.7;" d="M 204.894531 104.425781 C 204.894531 104.425781 203.710938 93.441406 192.191406 104.425781 C 192.191406 104.425781 183.195312 113.441406 194.261719 126.273438 Z M 204.894531 104.425781 "/><path style=" stroke:none;fill-rule:nonzero;fill:#633120;fill-opacity:1;" d="M 218.835938 82.675781 C 255.589844 82.675781 294.667969 67.136719 296.703125 66.316406 C 297.667969 65.929688 298.132812 64.835938 297.742188 63.875 C 297.359375 62.914062 296.261719 62.441406 295.300781 62.835938 C 294.6875 63.082031 233.757812 87.308594 193.601562 75.753906 C 192.605469 75.472656 191.5625 76.039062 191.273438 77.039062 C 190.988281 78.035156 191.5625 79.074219 192.558594 79.363281 C 200.777344 81.722656 209.738281 82.675781 218.835938 82.675781 Z M 218.835938 82.675781 "/><path style=" stroke:none;fill-rule:nonzero;fill:#633120;fill-opacity:1;" d="M 48.851562 340.484375 C 49.332031 340.484375 49.8125 340.300781 50.179688 339.933594 C 50.917969 339.203125 50.917969 338.015625 50.183594 337.28125 C 38.222656 325.316406 32.644531 314.710938 34.046875 306.609375 C 35.246094 299.695312 41.132812 296.824219 41.191406 296.796875 C 41.359375 296.714844 41.515625 296.609375 41.65625 296.480469 C 62.730469 277.097656 48.1875 255.859375 46.035156 252.976562 C 43.769531 244.960938 44.671875 236.765625 48.582031 229.871094 C 52.699219 222.601562 59.742188 217.355469 68.40625 215.097656 L 70.226562 214.632812 C 75.832031 213.210938 81.132812 211.871094 84.996094 206.300781 C 88.703125 200.914062 88.824219 195.355469 88.941406 189.984375 C 88.980469 188.1875 89.019531 186.332031 89.195312 184.496094 C 90.546875 170.433594 101.714844 168.457031 113.535156 166.363281 C 116.820312 165.78125 120.21875 165.179688 123.359375 164.304688 C 139.097656 159.964844 156.808594 148.460938 159.292969 129.207031 C 163.40625 97.761719 181.5625 61.765625 212.851562 52.242188 C 234.445312 45.648438 266.429688 41.59375 291.433594 49.964844 C 292.417969 50.296875 293.484375 49.765625 293.8125 48.78125 C 294.144531 47.796875 293.613281 46.730469 292.628906 46.402344 C 266.777344 37.753906 233.90625 41.894531 211.753906 48.648438 C 178.867188 58.664062 159.835938 96.082031 155.5625 128.726562 C 153.316406 146.160156 136.933594 156.667969 122.355469 160.6875 C 119.382812 161.515625 116.074219 162.097656 112.878906 162.667969 C 100.785156 164.808594 87.078125 167.238281 85.449219 184.144531 C 85.261719 186.113281 85.21875 188.039062 85.175781 189.902344 C 85.0625 195.167969 84.964844 199.710938 81.898438 204.167969 C 78.839844 208.582031 74.628906 209.644531 69.296875 210.992188 L 67.449219 211.46875 C 57.796875 213.984375 49.929688 219.867188 45.304688 228.023438 C 40.839844 235.90625 39.847656 245.261719 42.519531 254.363281 C 42.59375 254.601562 42.710938 254.828125 42.867188 255.019531 C 43.535156 255.839844 58.925781 275.28125 39.292969 293.550781 C 37.875 294.308594 31.714844 298.019531 30.339844 305.972656 C 28.699219 315.460938 34.476562 326.886719 47.523438 339.9375 C 47.886719 340.300781 48.371094 340.484375 48.851562 340.484375 Z M 48.851562 340.484375 "/><path style=" stroke:none;fill-rule:nonzero;fill:#633120;fill-opacity:1;" d="M 176.121094 63.59375 C 176.835938 63.59375 177.519531 63.183594 177.832031 62.488281 C 198.386719 17.050781 260.441406 32.367188 261.058594 32.523438 C 262.070312 32.78125 263.089844 32.179688 263.347656 31.175781 C 263.605469 30.171875 263.003906 29.148438 261.996094 28.890625 C 261.34375 28.722656 196.261719 12.617188 174.410156 60.941406 C 173.980469 61.886719 174.402344 63 175.34375 63.425781 C 175.597656 63.539062 175.859375 63.59375 176.121094 63.59375 Z M 176.121094 63.59375 "/><path style=" stroke:none;fill-rule:evenodd;fill:#e74e6d;fill-opacity:1;" d="M 269.417969 366.175781 C 269.585938 361.65625 268.71875 357.378906 266.675781 353.195312 C 264.367188 348.363281 260.78125 344.613281 255.269531 343.535156 C 248.941406 342.332031 244.324219 345.40625 240.789062 350.042969 C 236.507812 355.863281 235.496094 362.542969 235.496094 369.539062 C 235.566406 380.761719 239.007812 391.195312 243.578125 401.3125 C 244.277344 403.015625 245.261719 404.652344 246.105469 406.335938 C 246.464844 407.175781 246.847656 407.417969 247.765625 407.417969 C 258.445312 406.574219 268.984375 404.796875 278.96875 400.761719 C 285.800781 397.898438 291.933594 394.054688 296.21875 387.851562 C 299.515625 382.804688 301.226562 377.46875 299.007812 371.488281 C 296.726562 365.09375 290.277344 361.199219 283.035156 361.703125 C 278.34375 362.015625 274.039062 363.433594 270.140625 366.03125 C 269.949219 366.03125 269.851562 366.222656 269.417969 366.175781 Z M 269.417969 366.175781 "/><path style=" stroke:none;fill-rule:evenodd;fill:#ff869d;fill-opacity:1;" d="M 333.824219 313.921875 C 333.945312 310.84375 333.316406 307.933594 331.945312 305.101562 C 330.382812 301.804688 327.953125 299.28125 324.222656 298.535156 C 319.917969 297.695312 316.765625 299.785156 314.382812 302.980469 C 311.449219 306.921875 310.777344 311.445312 310.777344 316.199219 C 310.847656 323.773438 313.160156 330.910156 316.261719 337.761719 C 316.765625 338.960938 317.394531 340.019531 317.96875 341.199219 C 318.238281 341.726562 318.5 341.921875 319.101562 341.871094 C 326.367188 341.316406 333.558594 340.140625 340.320312 337.398438 C 344.960938 335.425781 349.101562 332.878906 352.011719 328.625 C 354.273438 325.210938 355.40625 321.558594 353.890625 317.5 C 352.398438 313.171875 347.96875 310.550781 343.0625 310.867188 C 339.867188 311.082031 336.953125 312.042969 334.304688 313.773438 C 334.136719 313.777344 334.085938 313.96875 333.824219 313.921875 Z M 333.824219 313.921875 "/><path style=" stroke:none;fill-rule:evenodd;fill:#ff6177;fill-opacity:1;" d="M 319.820312 258.132812 C 318.375 256.816406 316.738281 255.851562 314.792969 255.347656 C 312.554688 254.746094 310.316406 254.839844 308.4375 256.378906 C 306.273438 258.039062 305.941406 260.417969 306.46875 262.894531 C 307.164062 265.898438 309.0625 268.132812 311.328125 270.128906 C 315.03125 273.253906 319.363281 275.101562 323.980469 276.449219 C 324.726562 276.714844 325.570312 276.859375 326.316406 277.074219 C 326.675781 277.148438 326.867188 277.121094 327.109375 276.832031 C 329.875 273.132812 332.277344 269.191406 333.769531 264.769531 C 334.785156 261.742188 335.261719 258.714844 334.445312 255.515625 C 333.75 253.015625 332.472656 250.972656 329.875 249.988281 C 327.179688 248.976562 324.078125 249.941406 322.199219 252.460938 C 320.972656 254.046875 320.203125 255.851562 319.964844 257.800781 C 319.894531 257.941406 319.941406 258.011719 319.820312 258.132812 Z M 319.820312 258.132812 "/></g></g></g><g clip-rule="nonzero" clip-path="url(#4f95083c28)"><path style=" stroke:none;fill-rule:nonzero;fill:#ffffff;fill-opacity:1;" d="M 717.742188 487.324219 L 675.652344 460.910156 C 676.308594 458.945312 676.664062 456.863281 676.664062 454.660156 C 676.664062 443.832031 667.839844 434.96875 656.933594 434.96875 C 651.625 434.96875 646.796875 437.050781 643.21875 440.5 L 633.679688 434.550781 C 630.640625 432.648438 627.121094 431.636719 623.546875 431.636719 C 616.988281 431.636719 610.964844 434.96875 607.449219 440.5 L 605.421875 443.714844 C 603.871094 439.25 601.128906 435.445312 597.253906 432.886719 C 596.359375 432.054688 595.347656 431.339844 594.332031 430.625 C 591.171875 428.660156 587.359375 427.589844 583.480469 427.589844 C 573.109375 427.589844 562.199219 434.609375 554.925781 445.855469 C 554.867188 445.976562 554.804688 446.09375 554.6875 446.210938 L 553.496094 441.988281 C 552.125 437.347656 549.023438 433.480469 544.789062 431.101562 C 544.671875 431.042969 544.550781 430.980469 544.433594 430.921875 L 543.894531 430.683594 C 541.390625 429.496094 538.648438 428.839844 535.90625 428.839844 C 535.488281 428.839844 535.074219 428.839844 534.65625 428.898438 C 519.332031 429.910156 480.402344 434.195312 450.59375 451.984375 C 446.0625 454.660156 442.902344 459.125 441.890625 464.238281 C 441.828125 464.65625 441.769531 465.011719 441.710938 465.371094 C 441.414062 467.691406 441.53125 470.011719 442.070312 472.273438 L 449.582031 502.316406 C 447.375 501.484375 444.988281 500.949219 442.425781 500.949219 C 431.515625 500.890625 422.691406 509.695312 422.691406 520.582031 C 422.691406 530.816406 430.621094 539.261719 440.636719 540.15625 C 434.078125 544.203125 428.355469 551.164062 424.839844 559.847656 C 424.71875 560.085938 424.601562 560.382812 424.480469 560.621094 C 420.546875 570.855469 420.308594 581.863281 423.886719 590.074219 C 426.269531 595.546875 430.203125 599.472656 435.152344 601.554688 C 436.167969 602.210938 437.238281 602.746094 438.433594 603.160156 C 440.21875 603.875 442.070312 604.292969 443.976562 604.410156 C 443.976562 604.46875 443.917969 604.589844 443.917969 604.648438 C 442.664062 609.824219 445.527344 615 450.414062 616.84375 C 450.117188 619.226562 450.714844 621.546875 451.847656 623.449219 L 446.539062 623.449219 C 436.582031 623.449219 428.476562 631.539062 428.476562 641.476562 L 428.476562 649.6875 C 428.476562 659.621094 436.582031 667.714844 446.539062 667.714844 L 486.542969 667.714844 C 488.628906 671.460938 492.207031 674.140625 496.558594 675.03125 C 497.632812 675.210938 498.882812 675.449219 500.554688 675.6875 C 504.726562 676.222656 509.257812 676.519531 514.085938 676.519531 C 519.511719 676.519531 525.234375 676.164062 531.136719 675.449219 C 539.246094 674.496094 547.890625 672.769531 556.894531 670.449219 C 557.132812 670.390625 557.429688 670.332031 557.667969 670.273438 L 559.335938 669.796875 C 559.515625 669.738281 559.695312 669.675781 559.875 669.617188 C 561.125 669.261719 562.316406 668.902344 563.570312 668.546875 C 566.96875 671.285156 571.261719 672.890625 575.730469 672.890625 C 585.628906 672.890625 593.796875 665.394531 594.871094 655.816406 C 595.347656 655.578125 595.824219 655.339844 596.242188 655.042969 L 607.507812 662.121094 C 610.550781 664.023438 614.007812 665.035156 617.582031 665.035156 C 624.140625 665.035156 630.164062 661.703125 633.679688 656.171875 L 666.710938 603.695312 C 667.484375 603.339844 668.199219 602.863281 668.855469 602.328125 C 670.644531 603.695312 672.789062 604.410156 675.113281 604.410156 C 677.976562 604.410156 680.71875 603.222656 682.628906 601.199219 C 684.535156 599.175781 685.546875 596.558594 685.488281 593.761719 C 685.429688 591.382812 684.59375 589.179688 683.105469 587.394531 C 684.476562 585.550781 685.25 583.289062 685.191406 580.910156 C 685.132812 579.246094 684.714844 577.636719 683.9375 576.269531 L 723.703125 513.441406 C 729.308594 504.578125 726.625 492.855469 717.742188 487.324219 Z M 717.742188 487.324219 "/></g><path style=" stroke:none;fill-rule:nonzero;fill:#00bdf9;fill-opacity:1;" d="M 712.851562 496.605469 C 717.445312 499.519531 718.875 505.53125 715.953125 510.171875 L 690.078125 551.339844 L 679.765625 567.703125 L 626.109375 652.960938 C 623.1875 657.539062 617.167969 658.96875 612.515625 656.054688 L 528.394531 603.28125 C 523.804688 600.367188 522.375 594.355469 525.296875 589.714844 L 577.042969 507.492188 L 588.492188 489.289062 L 615.140625 446.925781 C 618.0625 442.34375 624.082031 440.917969 628.730469 443.832031 Z M 712.851562 496.605469 "/><path style=" stroke:none;fill-rule:nonzero;fill:#ffeedc;fill-opacity:1;" d="M 576.566406 626.898438 C 575.730469 626.898438 574.898438 626.664062 574.183594 626.1875 C 573.167969 625.53125 572.453125 624.519531 572.15625 623.332031 C 571.855469 622.140625 572.09375 620.949219 572.75 619.878906 L 661.640625 478.699219 C 662.296875 477.6875 663.3125 476.972656 664.503906 476.675781 C 665.695312 476.378906 666.886719 476.613281 667.960938 477.269531 C 670.105469 478.578125 670.703125 481.433594 669.390625 483.515625 L 580.441406 624.757812 C 579.785156 625.769531 578.773438 626.484375 577.582031 626.78125 C 577.28125 626.839844 576.925781 626.898438 576.566406 626.898438 Z M 665.515625 477.210938 C 664.203125 477.210938 662.953125 477.863281 662.179688 479.054688 L 573.289062 620.296875 C 572.75 621.1875 572.570312 622.199219 572.8125 623.210938 C 573.050781 624.222656 573.644531 625.117188 574.539062 625.652344 C 576.386719 626.78125 578.773438 626.246094 579.90625 624.402344 L 668.796875 483.160156 C 669.929688 481.316406 669.390625 478.933594 667.542969 477.804688 C 666.949219 477.386719 666.230469 477.210938 665.515625 477.210938 Z M 665.515625 477.210938 "/><path style=" stroke:none;fill-rule:nonzero;fill:#bb8c98;fill-opacity:1;" d="M 639.105469 486.789062 C 635.351562 492.738281 627.480469 494.582031 621.460938 490.835938 C 615.496094 487.085938 613.648438 479.234375 617.40625 473.222656 C 621.160156 467.273438 629.03125 465.429688 635.050781 469.179688 C 641.074219 472.925781 642.863281 480.78125 639.105469 486.789062 Z M 639.105469 486.789062 "/><path style=" stroke:none;fill-rule:nonzero;fill:#edd9de;fill-opacity:1;" d="M 638.75 484.824219 C 634.992188 490.773438 627.121094 492.621094 621.101562 488.871094 C 615.140625 485.121094 613.292969 477.269531 617.046875 471.261719 C 620.804688 465.3125 628.671875 463.464844 634.695312 467.214844 C 640.714844 471.023438 642.503906 478.875 638.75 484.824219 Z M 638.75 484.824219 "/><path style=" stroke:none;fill-rule:nonzero;fill:#edd9de;fill-opacity:1;" d="M 627.898438 491.609375 C 625.394531 491.609375 622.890625 490.894531 620.683594 489.527344 C 614.363281 485.539062 612.457031 477.210938 616.390625 470.902344 C 620.386719 464.597656 628.730469 462.691406 635.050781 466.621094 C 638.09375 468.523438 640.238281 471.558594 641.074219 475.066406 C 641.90625 478.578125 641.253906 482.207031 639.34375 485.300781 C 637.4375 488.335938 634.394531 490.476562 630.878906 491.308594 C 629.925781 491.488281 628.910156 491.609375 627.898438 491.609375 Z M 627.957031 466.023438 C 623.964844 466.023438 620.027344 467.988281 617.761719 471.617188 C 614.246094 477.210938 615.914062 484.648438 621.578125 488.15625 C 624.320312 489.882812 627.539062 490.417969 630.640625 489.703125 C 633.800781 488.988281 636.421875 487.085938 638.152344 484.410156 C 639.882812 481.671875 640.417969 478.460938 639.703125 475.367188 C 638.988281 472.210938 637.078125 469.59375 634.394531 467.871094 C 632.367188 466.621094 630.164062 466.023438 627.957031 466.023438 Z M 627.957031 466.023438 "/><path style=" stroke:none;fill-rule:nonzero;fill:#bb8c98;fill-opacity:1;" d="M 618.359375 519.75 C 614.601562 525.699219 606.734375 527.542969 600.710938 523.792969 C 594.75 520.046875 592.902344 512.191406 596.65625 506.183594 C 600.414062 500.175781 608.285156 498.390625 614.304688 502.136719 C 620.265625 505.886719 622.113281 513.800781 618.359375 519.75 Z M 618.359375 519.75 "/><path style=" stroke:none;fill-rule:nonzero;fill:#edd9de;fill-opacity:1;" d="M 618 517.84375 C 614.246094 523.792969 606.375 525.640625 600.355469 521.890625 C 594.390625 518.144531 592.542969 510.289062 596.300781 504.28125 C 600.054688 498.332031 607.925781 496.488281 613.945312 500.234375 C 619.96875 503.984375 621.757812 511.835938 618 517.84375 Z M 618 517.84375 "/><path style=" stroke:none;fill-rule:nonzero;fill:#edd9de;fill-opacity:1;" d="M 607.152344 524.566406 C 604.707031 524.566406 602.203125 523.914062 599.9375 522.484375 C 593.617188 518.5 591.710938 510.171875 595.644531 503.804688 C 599.640625 497.496094 607.984375 495.59375 614.304688 499.519531 C 620.625 503.507812 622.53125 511.835938 618.597656 518.144531 C 616.09375 522.308594 611.683594 524.566406 607.152344 524.566406 Z M 607.210938 499.042969 C 603.214844 499.042969 599.28125 501.007812 597.015625 504.636719 C 593.5 510.230469 595.167969 517.667969 600.832031 521.175781 C 606.433594 524.6875 613.886719 523.019531 617.40625 517.371094 C 620.921875 511.777344 619.253906 504.339844 613.589844 500.828125 C 611.621094 499.640625 609.355469 499.042969 607.210938 499.042969 Z M 607.210938 499.042969 "/><path style=" stroke:none;fill-rule:nonzero;fill:#bb8c98;fill-opacity:1;" d="M 597.074219 553.542969 C 593.320312 559.492188 585.449219 561.335938 579.429688 557.589844 C 573.464844 553.839844 571.617188 545.988281 575.375 539.976562 C 579.128906 534.027344 587 532.183594 593.019531 535.933594 C 598.984375 539.679688 600.832031 547.59375 597.074219 553.542969 Z M 597.074219 553.542969 "/><path style=" stroke:none;fill-rule:nonzero;fill:#edd9de;fill-opacity:1;" d="M 596.71875 551.636719 C 592.960938 557.589844 585.09375 559.433594 579.070312 555.683594 C 573.109375 551.9375 571.261719 544.082031 575.015625 538.074219 C 578.773438 532.066406 586.640625 530.28125 592.664062 534.027344 C 598.683594 537.777344 600.472656 545.628906 596.71875 551.636719 Z M 596.71875 551.636719 "/><path style=" stroke:none;fill-rule:nonzero;fill:#edd9de;fill-opacity:1;" d="M 585.867188 558.363281 C 583.421875 558.363281 580.917969 557.707031 578.652344 556.277344 C 575.613281 554.375 573.464844 551.339844 572.632812 547.832031 C 571.796875 544.320312 572.453125 540.691406 574.359375 537.597656 C 578.355469 531.292969 586.703125 529.386719 593.019531 533.3125 C 599.339844 537.300781 601.25 545.628906 597.3125 551.996094 C 594.808594 556.101562 590.398438 558.363281 585.867188 558.363281 Z M 585.925781 532.839844 C 581.933594 532.839844 577.996094 534.800781 575.730469 538.429688 C 574.003906 541.167969 573.464844 544.378906 574.183594 547.472656 C 574.898438 550.628906 576.804688 553.246094 579.488281 554.96875 C 585.09375 558.480469 592.542969 556.816406 596.0625 551.164062 C 599.578125 545.570312 597.910156 538.132812 592.246094 534.621094 C 590.339844 533.433594 588.132812 532.839844 585.925781 532.839844 Z M 585.925781 532.839844 "/><path style=" stroke:none;fill-rule:nonzero;fill:#bb8c98;fill-opacity:1;" d="M 574.242188 589.835938 C 570.484375 595.785156 562.617188 597.628906 556.59375 593.878906 C 550.632812 590.132812 548.785156 582.277344 552.539062 576.269531 C 556.296875 570.320312 564.167969 568.476562 570.1875 572.222656 C 576.148438 575.972656 577.996094 583.824219 574.242188 589.835938 Z M 574.242188 589.835938 "/><path style=" stroke:none;fill-rule:nonzero;fill:#edd9de;fill-opacity:1;" d="M 573.882812 587.871094 C 570.128906 593.820312 562.257812 595.664062 556.238281 591.917969 C 550.273438 588.167969 548.425781 580.316406 552.183594 574.304688 C 555.9375 568.355469 563.808594 566.511719 569.828125 570.261719 C 575.851562 574.066406 577.640625 581.921875 573.882812 587.871094 Z M 573.882812 587.871094 "/><path style=" stroke:none;fill-rule:nonzero;fill:#edd9de;fill-opacity:1;" d="M 563.035156 594.652344 C 560.589844 594.652344 558.085938 594 555.820312 592.570312 C 552.777344 590.667969 550.632812 587.632812 549.796875 584.121094 C 548.964844 580.613281 549.621094 576.984375 551.527344 573.890625 C 555.523438 567.582031 563.867188 565.679688 570.1875 569.605469 C 576.507812 573.59375 578.414062 581.921875 574.480469 588.289062 C 571.976562 592.394531 567.5625 594.652344 563.035156 594.652344 Z M 563.09375 569.128906 C 559.097656 569.128906 555.164062 571.09375 552.898438 574.722656 C 551.167969 577.460938 550.632812 580.671875 551.347656 583.765625 C 552.0625 586.917969 553.972656 589.539062 556.652344 591.261719 C 562.257812 594.773438 569.710938 593.105469 573.226562 587.453125 C 576.746094 581.863281 575.078125 574.425781 569.414062 570.914062 C 567.503906 569.664062 565.300781 569.128906 563.09375 569.128906 Z M 563.09375 569.128906 "/><path style=" stroke:none;fill-rule:nonzero;fill:#bb8c98;fill-opacity:1;" d="M 693.359375 520.761719 C 689.601562 526.710938 681.734375 528.554688 675.710938 524.804688 C 669.75 521.058594 667.902344 513.203125 671.65625 507.195312 C 675.414062 501.1875 683.28125 499.402344 689.304688 503.148438 C 695.324219 506.898438 697.113281 514.8125 693.359375 520.761719 Z M 693.359375 520.761719 "/><path style=" stroke:none;fill-rule:nonzero;fill:#edd9de;fill-opacity:1;" d="M 693 518.855469 C 689.246094 524.804688 681.375 526.652344 675.355469 522.902344 C 669.390625 519.152344 667.542969 511.300781 671.300781 505.292969 C 675.054688 499.34375 682.925781 497.496094 688.945312 501.246094 C 694.96875 504.996094 696.757812 512.90625 693 518.855469 Z M 693 518.855469 "/><path style=" stroke:none;fill-rule:nonzero;fill:#edd9de;fill-opacity:1;" d="M 682.148438 525.578125 C 679.707031 525.578125 677.203125 524.925781 674.9375 523.496094 C 668.617188 519.511719 666.710938 511.183594 670.644531 504.875 C 674.636719 498.570312 682.984375 496.664062 689.304688 500.589844 C 695.625 504.578125 697.53125 512.90625 693.597656 519.273438 C 691.09375 523.320312 686.679688 525.578125 682.148438 525.578125 Z M 682.210938 500.054688 C 678.214844 500.054688 674.28125 502.019531 672.015625 505.648438 C 668.496094 511.242188 670.167969 518.679688 675.832031 522.1875 C 681.433594 525.699219 688.886719 524.03125 692.40625 518.378906 C 695.921875 512.789062 694.253906 505.351562 688.589844 501.839844 C 686.621094 500.652344 684.414062 500.054688 682.210938 500.054688 Z M 682.210938 500.054688 "/><path style=" stroke:none;fill-rule:nonzero;fill:#bb8c98;fill-opacity:1;" d="M 672.609375 553.78125 C 668.855469 559.730469 660.984375 561.574219 654.964844 557.824219 C 648.941406 554.078125 647.15625 546.222656 650.910156 540.214844 C 654.667969 534.265625 662.535156 532.421875 668.558594 536.167969 C 674.519531 539.917969 676.367188 547.769531 672.609375 553.78125 Z M 672.609375 553.78125 "/><path style=" stroke:none;fill-rule:nonzero;fill:#edd9de;fill-opacity:1;" d="M 672.253906 551.816406 C 668.496094 557.765625 660.628906 559.609375 654.605469 555.863281 C 648.644531 552.113281 646.796875 544.261719 650.550781 538.253906 C 654.308594 532.300781 662.179688 530.457031 668.199219 534.207031 C 674.222656 537.953125 676.007812 545.867188 672.253906 551.816406 Z M 672.253906 551.816406 "/><path style=" stroke:none;fill-rule:nonzero;fill:#edd9de;fill-opacity:1;" d="M 661.402344 558.539062 C 658.957031 558.539062 656.453125 557.886719 654.1875 556.457031 C 651.148438 554.554688 649.003906 551.519531 648.167969 548.007812 C 647.332031 544.5 647.988281 540.871094 649.898438 537.777344 C 651.804688 534.742188 654.84375 532.601562 658.363281 531.765625 C 661.878906 530.933594 665.515625 531.589844 668.617188 533.492188 C 674.9375 537.480469 676.84375 545.808594 672.910156 552.113281 C 670.347656 556.339844 665.933594 558.539062 661.402344 558.539062 Z M 661.460938 533.015625 C 660.570312 533.015625 659.675781 533.136719 658.78125 533.3125 C 655.621094 534.027344 652.996094 535.933594 651.269531 538.609375 C 649.539062 541.347656 649.003906 544.558594 649.71875 547.652344 C 650.433594 550.804688 652.339844 553.421875 655.023438 555.148438 C 657.707031 556.875 660.984375 557.410156 664.085938 556.695312 C 667.246094 555.980469 669.867188 554.078125 671.597656 551.402344 C 675.113281 545.808594 673.445312 538.371094 667.78125 534.859375 C 665.875 533.671875 663.667969 533.015625 661.460938 533.015625 Z M 661.460938 533.015625 "/><path style=" stroke:none;fill-rule:nonzero;fill:#bb8c98;fill-opacity:1;" d="M 651.328125 587.574219 C 647.570312 593.523438 639.703125 595.367188 633.679688 591.621094 C 627.71875 587.871094 625.871094 580.019531 629.625 574.007812 C 633.382812 568 641.253906 566.214844 647.273438 569.964844 C 653.234375 573.710938 655.082031 581.566406 651.328125 587.574219 Z M 651.328125 587.574219 "/><path style=" stroke:none;fill-rule:nonzero;fill:#edd9de;fill-opacity:1;" d="M 650.96875 585.609375 C 647.214844 591.558594 639.34375 593.40625 633.324219 589.65625 C 627.359375 585.90625 625.511719 578.054688 629.269531 572.046875 C 633.023438 566.097656 640.894531 564.25 646.914062 568 C 652.9375 571.808594 654.726562 579.660156 650.96875 585.609375 Z M 650.96875 585.609375 "/><path style=" stroke:none;fill-rule:nonzero;fill:#edd9de;fill-opacity:1;" d="M 640.121094 592.394531 C 637.617188 592.394531 635.113281 591.679688 632.90625 590.3125 C 629.863281 588.40625 627.71875 585.371094 626.882812 581.863281 C 626.050781 578.351562 626.707031 574.722656 628.613281 571.628906 C 632.609375 565.324219 640.953125 563.417969 647.273438 567.34375 C 653.59375 571.332031 655.5 579.660156 651.566406 585.96875 C 649.660156 589 646.617188 591.144531 643.101562 591.976562 C 642.144531 592.273438 641.132812 592.394531 640.121094 592.394531 Z M 640.179688 566.808594 C 639.285156 566.808594 638.390625 566.929688 637.496094 567.105469 C 634.335938 567.820312 631.714844 569.726562 629.984375 572.402344 C 628.253906 575.140625 627.71875 578.351562 628.433594 581.445312 C 629.148438 584.597656 631.058594 587.21875 633.742188 588.941406 C 636.484375 590.667969 639.703125 591.203125 642.800781 590.488281 C 645.960938 589.773438 648.585938 587.871094 650.3125 585.195312 C 653.832031 579.601562 652.164062 572.164062 646.5 568.652344 C 644.589844 567.464844 642.386719 566.808594 640.179688 566.808594 Z M 640.179688 566.808594 "/><path style=" stroke:none;fill-rule:nonzero;fill:#bb8c98;fill-opacity:1;" d="M 628.492188 623.804688 C 624.738281 629.757812 616.867188 631.601562 610.847656 627.851562 C 604.886719 624.105469 603.035156 616.25 606.792969 610.242188 C 610.550781 604.292969 618.417969 602.449219 624.441406 606.195312 C 630.402344 610.003906 632.25 617.855469 628.492188 623.804688 Z M 628.492188 623.804688 "/><path style=" stroke:none;fill-rule:nonzero;fill:#edd9de;fill-opacity:1;" d="M 628.136719 621.902344 C 624.378906 627.851562 616.511719 629.695312 610.488281 625.949219 C 604.527344 622.199219 602.679688 614.347656 606.433594 608.335938 C 610.191406 602.386719 618.0625 600.542969 624.082031 604.292969 C 630.105469 608.039062 631.890625 615.953125 628.136719 621.902344 Z M 628.136719 621.902344 "/><path style=" stroke:none;fill-rule:nonzero;fill:#edd9de;fill-opacity:1;" d="M 617.285156 628.625 C 614.78125 628.625 612.277344 627.910156 610.070312 626.542969 C 607.03125 624.640625 604.886719 621.605469 604.050781 618.09375 C 603.214844 614.585938 603.871094 610.957031 605.78125 607.863281 C 609.773438 601.554688 618.121094 599.652344 624.441406 603.578125 C 627.480469 605.480469 629.625 608.515625 630.460938 612.027344 C 631.296875 615.535156 630.640625 619.164062 628.730469 622.257812 C 626.824219 625.292969 623.785156 627.4375 620.265625 628.269531 C 619.3125 628.507812 618.300781 628.625 617.285156 628.625 Z M 617.34375 603.101562 C 613.351562 603.101562 609.417969 605.066406 607.152344 608.695312 C 605.421875 611.429688 604.886719 614.644531 605.601562 617.738281 C 606.316406 620.890625 608.222656 623.507812 610.90625 625.234375 C 613.648438 626.960938 616.867188 627.496094 619.96875 626.78125 C 623.128906 626.066406 625.75 624.164062 627.480469 621.484375 C 629.210938 618.75 629.746094 615.535156 629.03125 612.441406 C 628.316406 609.289062 626.40625 606.671875 623.722656 604.945312 C 621.757812 603.695312 619.492188 603.101562 617.34375 603.101562 Z M 617.34375 603.101562 "/><path style=" stroke:none;fill-rule:nonzero;fill:#ffa34f;fill-opacity:1;" d="M 608.105469 637.609375 C 602.679688 642.429688 587.359375 654.03125 556.894531 662.65625 L 555.222656 663.132812 C 545.746094 665.632812 537.398438 667.179688 530.125 668.070312 C 517.066406 669.675781 507.589844 669.082031 501.867188 668.308594 C 500.492188 668.128906 499.363281 667.953125 498.40625 667.714844 C 496.5 667.355469 494.949219 665.988281 494.292969 664.144531 C 492.980469 660.457031 490.476562 653.433594 487.378906 644.453125 C 487.320312 644.273438 487.257812 644.09375 487.199219 643.914062 C 479.390625 621.367188 467.824219 587.097656 461.625 563.777344 C 459.894531 557.289062 458.523438 551.636719 457.867188 547.355469 C 457.808594 547.058594 457.746094 546.699219 457.6875 546.460938 C 453.394531 518.441406 469.492188 509.695312 469.492188 509.695312 L 468.71875 506.957031 L 465.738281 496.128906 L 480.761719 488.097656 L 506.457031 482.742188 L 548.308594 473.460938 L 552.0625 487.027344 C 552.0625 487.027344 567.980469 486.433594 578.714844 507.550781 C 579.546875 509.097656 580.261719 510.765625 581.039062 512.609375 C 582.109375 515.226562 583.242188 518.441406 584.375 522.308594 C 590.695312 542.65625 598.566406 577.996094 603.992188 603.757812 C 604.230469 604.828125 604.46875 605.898438 604.648438 606.96875 C 607.089844 618.628906 608.9375 627.972656 609.832031 632.492188 C 610.25 634.335938 609.59375 636.242188 608.105469 637.609375 Z M 608.105469 637.609375 "/><path style=" stroke:none;fill-rule:nonzero;fill:#ffeedc;fill-opacity:1;" d="M 603.992188 603.695312 C 595.703125 612.503906 588.96875 617.796875 566.789062 626.78125 C 541.691406 636.894531 514.386719 641.773438 487.199219 643.976562 C 479.390625 621.425781 467.824219 587.15625 461.625 563.835938 C 459.894531 557.351562 458.523438 551.699219 457.867188 547.414062 C 500.671875 544.617188 542.703125 530.753906 578.710938 507.613281 C 579.546875 509.160156 580.261719 510.824219 581.039062 512.667969 C 582.109375 515.285156 583.242188 518.5 584.375 522.367188 C 590.695312 542.59375 598.566406 577.933594 603.992188 603.695312 Z M 603.992188 603.695312 "/><path style=" stroke:none;fill-rule:nonzero;fill:#ff6963;fill-opacity:1;" d="M 524.132812 556.65625 L 533.886719 553.496094 L 551.960938 609.066406 L 542.207031 612.226562 Z M 524.132812 556.65625 "/><path style=" stroke:none;fill-rule:nonzero;fill:#ff6963;fill-opacity:1;" d="M 512.0625 585.0625 L 560.335938 569.476562 L 563.96875 580.6875 L 515.699219 596.269531 Z M 512.0625 585.0625 "/><path style=" stroke:none;fill-rule:nonzero;fill:#ffffff;fill-opacity:1;" d="M 556.714844 509.695312 C 557.546875 513.027344 559.8125 515.941406 562.792969 517.667969 C 564.046875 518.378906 565.417969 518.917969 566.847656 518.855469 C 569.589844 518.679688 571.796875 516.179688 572.273438 513.503906 C 572.75 510.824219 571.855469 508.027344 570.484375 505.648438 C 569.769531 504.339844 568.875 503.089844 567.742188 502.136719 C 560.828125 495.890625 554.628906 501.601562 556.714844 509.695312 Z M 556.714844 509.695312 "/><path style=" stroke:none;fill-rule:nonzero;fill:#ffffff;fill-opacity:1;" d="M 571.617188 539.144531 C 572.570312 540.75 573.765625 542.179688 575.375 543.070312 C 576.984375 543.964844 579.011719 544.203125 580.679688 543.367188 C 583.066406 542.121094 583.839844 539.085938 583.839844 536.40625 C 583.78125 531.589844 580.679688 520.9375 574.183594 521.59375 C 566.253906 522.367188 569.113281 534.859375 571.617188 539.144531 Z M 571.617188 539.144531 "/><path style=" stroke:none;fill-rule:nonzero;fill:#412424;fill-opacity:0.2;" d="M 501.867188 668.25 C 500.492188 668.070312 499.363281 667.890625 498.40625 667.65625 C 496.5 667.296875 494.949219 665.929688 494.292969 664.085938 C 492.980469 660.394531 490.476562 653.375 487.378906 644.390625 C 487.320312 644.214844 487.257812 644.035156 487.199219 643.855469 C 479.390625 621.308594 467.824219 587.039062 461.625 563.714844 C 459.894531 557.230469 458.523438 551.578125 457.867188 547.296875 C 457.808594 546.996094 457.746094 546.640625 457.6875 546.402344 C 453.394531 518.378906 469.492188 509.636719 469.492188 509.636719 L 468.71875 506.898438 C 470.921875 507.613281 472.472656 509.160156 472.472656 511.957031 C 472.472656 514.75 470.863281 517.84375 470.328125 520.640625 C 469.671875 524.09375 469.375 527.601562 469.3125 531.113281 C 469.136719 539.203125 470.148438 547.234375 471.339844 555.207031 C 474.261719 574.605469 478.136719 593.878906 482.847656 612.917969 C 487.496094 631.957031 493.101562 650.816406 501.867188 668.25 Z M 501.867188 668.25 "/><path style=" stroke:none;fill-rule:nonzero;fill:#ffeedc;fill-opacity:1;" d="M 552.363281 472.628906 C 552.363281 472.628906 550.8125 475.425781 545.328125 479.707031 C 545.207031 479.828125 545.089844 479.945312 544.96875 480.007812 C 542.464844 481.910156 539.125 484.171875 534.835938 486.609375 C 534.714844 486.667969 534.59375 486.730469 534.417969 486.847656 C 531.019531 488.753906 526.964844 490.773438 522.195312 492.855469 C 522.074219 492.917969 521.898438 492.976562 521.777344 493.035156 C 518.5 494.464844 514.921875 495.890625 510.988281 497.378906 C 510.09375 497.675781 509.257812 497.972656 508.421875 498.269531 C 508.304688 498.332031 508.125 498.390625 508.007812 498.390625 C 502.519531 500.292969 497.453125 501.664062 492.921875 502.675781 C 492.804688 502.734375 492.625 502.734375 492.445312 502.792969 C 487.558594 503.863281 483.144531 504.398438 479.328125 504.695312 C 479.152344 504.695312 478.972656 504.757812 478.851562 504.757812 C 473.90625 505.113281 469.910156 504.875 466.75 504.519531 C 466.570312 504.519531 466.394531 504.457031 466.273438 504.457031 C 461.207031 503.804688 458.703125 502.734375 458.703125 502.734375 L 450.890625 471.617188 C 450.59375 470.488281 450.535156 469.296875 450.714844 468.167969 C 450.714844 467.988281 450.773438 467.871094 450.773438 467.691406 C 451.25 465.132812 452.859375 462.871094 455.183594 461.445312 C 483.085938 444.84375 519.691406 440.679688 535.191406 439.667969 C 536.800781 439.550781 538.410156 439.90625 539.78125 440.5625 C 539.902344 440.621094 540.082031 440.679688 540.199219 440.796875 C 542.285156 441.929688 543.894531 443.890625 544.550781 446.273438 Z M 552.363281 472.628906 "/><path style=" stroke:none;fill-rule:nonzero;fill:#9ed9e5;fill-opacity:1;" d="M 540.257812 440.679688 C 537.636719 442.941406 534.835938 445.023438 531.972656 446.867188 C 531.851562 446.925781 531.734375 447.046875 531.613281 447.105469 C 527.917969 449.425781 524.101562 451.507812 520.226562 453.292969 C 520.109375 453.351562 519.929688 453.410156 519.808594 453.472656 C 516.054688 455.195312 512.238281 456.742188 508.484375 458.113281 C 508.363281 458.171875 508.183594 458.230469 508.066406 458.230469 C 504.90625 459.363281 501.746094 460.433594 498.707031 461.382812 C 497.871094 461.683594 496.976562 461.917969 496.082031 462.15625 C 495.964844 462.21875 495.785156 462.277344 495.605469 462.277344 C 491.671875 463.40625 487.496094 464.417969 483.085938 465.3125 C 482.964844 465.371094 482.789062 465.371094 482.609375 465.429688 C 479.808594 465.964844 476.886719 466.5 473.785156 466.976562 C 472.234375 467.214844 470.804688 467.453125 469.433594 467.632812 C 469.253906 467.632812 469.136719 467.691406 468.957031 467.691406 C 464.605469 468.285156 461.027344 468.644531 457.867188 468.644531 C 457.570312 468.644531 457.269531 468.644531 456.972656 468.644531 C 456.792969 468.644531 456.617188 468.644531 456.496094 468.644531 C 454.46875 468.582031 452.5625 468.34375 450.714844 467.929688 C 450.714844 467.75 450.773438 467.632812 450.773438 467.453125 C 456.792969 468.878906 463.234375 468.167969 473.726562 466.558594 C 483.027344 465.132812 491.074219 463.289062 498.46875 460.96875 C 509.199219 457.578125 520.941406 453.234375 531.375 446.570312 L 531.4375 446.570312 C 534.355469 444.726562 537.160156 442.644531 539.78125 440.382812 C 539.960938 440.5 540.140625 440.621094 540.257812 440.679688 Z M 540.257812 440.679688 "/><path style=" stroke:none;fill-rule:nonzero;fill:#9ed9e5;fill-opacity:1;" d="M 466.75 504.457031 C 466.570312 504.457031 466.394531 504.398438 466.273438 504.398438 L 456.4375 468.820312 L 456.4375 468.761719 L 456.855469 468.644531 L 456.914062 468.820312 Z M 466.75 504.457031 "/><path style=" stroke:none;fill-rule:nonzero;fill:#9ed9e5;fill-opacity:1;" d="M 479.328125 504.636719 C 479.152344 504.636719 478.972656 504.695312 478.851562 504.695312 C 477.363281 499.042969 475.8125 493.394531 474.261719 487.679688 C 472.472656 481.078125 470.683594 474.414062 468.957031 467.929688 C 468.957031 467.871094 468.957031 467.808594 468.898438 467.808594 L 469.3125 467.691406 C 469.3125 467.75 469.375 467.808594 469.375 467.871094 C 471.101562 474.355469 472.890625 480.957031 474.679688 487.5625 C 476.289062 493.273438 477.839844 498.984375 479.328125 504.636719 Z M 479.328125 504.636719 "/><path style=" stroke:none;fill-rule:nonzero;fill:#9ed9e5;fill-opacity:1;" d="M 492.921875 502.675781 C 492.804688 502.734375 492.625 502.734375 492.445312 502.792969 C 489.105469 490.417969 485.769531 477.925781 482.609375 465.667969 C 482.550781 465.550781 482.550781 465.488281 482.550781 465.429688 L 483.027344 465.3125 C 483.027344 465.429688 483.085938 465.488281 483.085938 465.609375 C 486.246094 477.804688 489.585938 490.300781 492.921875 502.675781 Z M 492.921875 502.675781 "/><path style=" stroke:none;fill-rule:nonzero;fill:#9ed9e5;fill-opacity:1;" d="M 508.484375 498.269531 C 508.363281 498.332031 508.183594 498.390625 508.066406 498.390625 C 504.070312 486.371094 499.898438 474.355469 495.664062 462.457031 C 495.664062 462.335938 495.605469 462.277344 495.546875 462.15625 L 495.964844 461.980469 C 496.023438 462.097656 496.023438 462.15625 496.082031 462.277344 C 500.316406 474.175781 504.429688 486.253906 508.484375 498.269531 Z M 508.484375 498.269531 "/><path style=" stroke:none;fill-rule:nonzero;fill:#9ed9e5;fill-opacity:1;" d="M 522.195312 492.855469 C 522.074219 492.917969 521.898438 492.976562 521.777344 493.035156 L 508.007812 458.351562 L 507.828125 457.933594 L 508.246094 457.753906 L 508.421875 458.171875 Z M 522.195312 492.855469 "/><path style=" stroke:none;fill-rule:nonzero;fill:#9ed9e5;fill-opacity:1;" d="M 534.835938 486.609375 C 534.714844 486.667969 534.59375 486.730469 534.417969 486.847656 C 529.289062 475.902344 524.339844 464.714844 519.75 453.53125 C 519.75 453.472656 519.75 453.472656 519.691406 453.410156 L 520.109375 453.234375 C 520.109375 453.234375 520.109375 453.292969 520.167969 453.292969 C 524.757812 464.476562 529.707031 475.664062 534.835938 486.609375 Z M 534.835938 486.609375 "/><path style=" stroke:none;fill-rule:nonzero;fill:#9ed9e5;fill-opacity:1;" d="M 545.328125 479.707031 C 545.207031 479.828125 545.089844 479.945312 544.96875 480.007812 C 540.976562 468.878906 536.503906 457.875 531.613281 447.105469 C 531.554688 446.984375 531.496094 446.808594 531.4375 446.6875 L 531.851562 446.511719 C 531.914062 446.628906 531.972656 446.75 532.03125 446.867188 C 536.859375 457.578125 541.332031 468.582031 545.328125 479.707031 Z M 545.328125 479.707031 "/><path style=" stroke:none;fill-rule:nonzero;fill:#edd9de;fill-opacity:1;" d="M 441.828125 596.261719 C 440.996094 595.902344 440.160156 595.488281 439.445312 594.953125 C 433.007812 590.3125 431.398438 578.472656 435.929688 566.808594 C 435.929688 566.75 435.988281 566.691406 435.988281 566.632812 C 440.996094 553.898438 451.546875 546.105469 459.835938 548.902344 C 459.953125 548.960938 460.074219 549.019531 460.253906 549.019531 C 468.003906 551.996094 470.863281 563.714844 467.109375 575.792969 C 466.808594 576.6875 466.570312 577.578125 466.214844 578.472656 C 461.027344 591.558594 450.175781 599.53125 441.828125 596.261719 Z M 441.828125 596.261719 "/><path style=" stroke:none;fill-rule:nonzero;fill:#ffeedc;fill-opacity:1;" d="M 439.386719 595.011719 C 439.265625 594.953125 439.148438 594.890625 439.027344 594.890625 C 430.679688 591.679688 428 578.472656 433.125 565.441406 C 433.125 565.324219 433.183594 565.261719 433.246094 565.144531 C 438.371094 552.292969 449.101562 544.441406 457.390625 547.652344 C 458.226562 548.007812 459.058594 548.425781 459.773438 548.960938 C 465.914062 553.421875 467.703125 564.488281 463.828125 575.675781 C 463.648438 576.152344 463.472656 576.625 463.292969 577.101562 C 458.34375 589.953125 447.730469 597.867188 439.386719 595.011719 Z M 439.386719 595.011719 "/><path style=" stroke:none;fill-rule:nonzero;fill:#00bdf9;fill-opacity:1;" d="M 463.886719 575.675781 C 461.027344 575.316406 458.226562 574.605469 455.421875 573.832031 C 448.746094 571.984375 442.070312 569.785156 435.988281 566.632812 C 435.035156 566.15625 434.140625 565.621094 433.246094 565.085938 C 438.371094 552.234375 449.101562 544.378906 457.390625 547.59375 C 458.226562 547.949219 459.058594 548.367188 459.773438 548.902344 C 465.914062 553.421875 467.703125 564.429688 463.886719 575.675781 Z M 463.886719 575.675781 "/><path style=" stroke:none;fill-rule:nonzero;fill:#edd9de;fill-opacity:1;" d="M 565.058594 484.824219 C 564.285156 484.347656 563.570312 483.753906 562.972656 483.101562 C 557.546875 477.328125 558.144531 465.429688 564.761719 454.78125 C 564.820312 454.722656 564.820312 454.660156 564.882812 454.601562 C 572.214844 443 584.019531 437.347656 591.589844 441.632812 C 591.710938 441.691406 591.828125 441.75 591.949219 441.871094 C 599.042969 446.273438 599.640625 458.289062 593.675781 469.476562 C 593.257812 470.308594 592.78125 471.140625 592.246094 471.914062 C 584.792969 483.8125 572.632812 489.585938 565.058594 484.824219 Z M 565.058594 484.824219 "/><path style=" stroke:none;fill-rule:nonzero;fill:#ffeedc;fill-opacity:1;" d="M 562.914062 483.101562 C 562.792969 483.039062 562.675781 482.980469 562.554688 482.921875 C 554.984375 478.160156 554.804688 464.714844 562.257812 452.875 C 562.316406 452.816406 562.378906 452.699219 562.4375 452.636719 C 569.828125 440.917969 581.933594 435.265625 589.445312 439.964844 C 590.21875 440.441406 590.933594 441.035156 591.53125 441.691406 C 596.71875 447.222656 596.417969 458.410156 590.515625 468.703125 C 590.277344 469.179688 589.980469 469.59375 589.742188 470.011719 C 582.46875 481.671875 570.546875 487.441406 562.914062 483.101562 Z M 562.914062 483.101562 "/><path style=" stroke:none;fill-rule:nonzero;fill:#ff998d;fill-opacity:1;" d="M 590.578125 468.703125 C 587.835938 467.871094 585.152344 466.621094 582.589844 465.3125 C 576.386719 462.277344 570.246094 458.886719 564.820312 454.601562 C 563.988281 453.949219 563.210938 453.292969 562.4375 452.578125 C 569.828125 440.859375 581.933594 435.207031 589.445312 439.90625 C 590.21875 440.382812 590.933594 440.976562 591.53125 441.632812 C 596.777344 447.222656 596.480469 458.410156 590.578125 468.703125 Z M 590.578125 468.703125 "/><path style=" stroke:none;fill-rule:nonzero;fill:#edd9de;fill-opacity:1;" d="M 525.472656 660.21875 L 441.414062 660.21875 C 439.386719 660.21875 437.714844 658.550781 437.714844 656.527344 L 437.714844 637.964844 C 437.714844 635.945312 439.386719 634.277344 441.414062 634.277344 L 525.472656 634.277344 C 527.5 634.277344 529.171875 635.945312 529.171875 637.964844 L 529.171875 656.527344 C 529.171875 658.550781 527.5 660.21875 525.472656 660.21875 Z M 525.472656 660.21875 "/><path style=" stroke:none;fill-rule:nonzero;fill:#bb8c98;fill-opacity:1;" d="M 496.441406 657.601562 L 466.09375 657.601562 L 466.09375 636.835938 L 496.441406 636.835938 C 496.441406 636.835938 496.441406 657.601562 496.441406 657.601562 Z M 466.453125 657.300781 L 496.140625 657.300781 L 496.140625 637.191406 L 466.453125 637.191406 Z M 466.453125 657.300781 "/><path style=" stroke:none;fill-rule:nonzero;fill:#bb8c98;fill-opacity:1;" d="M 448.6875 640.109375 C 448.6875 640.941406 448.03125 641.59375 447.195312 641.59375 C 446.359375 641.59375 445.707031 640.941406 445.707031 640.109375 C 445.707031 639.273438 446.359375 638.621094 447.195312 638.621094 C 448.03125 638.621094 448.6875 639.273438 448.6875 640.109375 Z M 448.6875 640.109375 "/><path style=" stroke:none;fill-rule:nonzero;fill:#bb8c98;fill-opacity:1;" d="M 455.242188 646.535156 C 455.242188 647.367188 454.589844 648.019531 453.753906 648.019531 C 452.917969 648.019531 452.261719 647.367188 452.261719 646.535156 C 452.261719 645.699219 452.917969 645.046875 453.753906 645.046875 C 454.589844 645.046875 455.242188 645.699219 455.242188 646.535156 Z M 455.242188 646.535156 "/><path style=" stroke:none;fill-rule:nonzero;fill:#bb8c98;fill-opacity:1;" d="M 448.925781 652.78125 C 448.925781 653.613281 448.269531 654.269531 447.433594 654.269531 C 446.597656 654.269531 445.945312 653.613281 445.945312 652.78125 C 445.945312 651.949219 446.597656 651.292969 447.433594 651.292969 C 448.269531 651.351562 448.925781 652.007812 448.925781 652.78125 Z M 448.925781 652.78125 "/><path style=" stroke:none;fill-rule:nonzero;fill:#bb8c98;fill-opacity:1;" d="M 515.875 640.109375 C 515.875 640.941406 516.53125 641.59375 517.367188 641.59375 C 518.199219 641.59375 518.855469 640.941406 518.855469 640.109375 C 518.855469 639.273438 518.199219 638.621094 517.367188 638.621094 C 516.53125 638.621094 515.875 639.273438 515.875 640.109375 Z M 515.875 640.109375 "/><path style=" stroke:none;fill-rule:nonzero;fill:#bb8c98;fill-opacity:1;" d="M 509.316406 646.535156 C 509.316406 647.367188 509.972656 648.019531 510.808594 648.019531 C 511.644531 648.019531 512.296875 647.367188 512.296875 646.535156 C 512.296875 645.699219 511.644531 645.046875 510.808594 645.046875 C 509.972656 645.046875 509.316406 645.699219 509.316406 646.535156 Z M 509.316406 646.535156 "/><path style=" stroke:none;fill-rule:nonzero;fill:#bb8c98;fill-opacity:1;" d="M 515.636719 652.78125 C 515.636719 653.613281 516.292969 654.269531 517.128906 654.269531 C 517.960938 654.269531 518.617188 653.613281 518.617188 652.78125 C 518.617188 651.949219 517.960938 651.292969 517.128906 651.292969 C 516.292969 651.292969 515.636719 652.007812 515.636719 652.78125 Z M 515.636719 652.78125 "/><path style=" stroke:none;fill-rule:nonzero;fill:#ffeedc;fill-opacity:1;" d="M 585.925781 655.28125 C 585.925781 655.941406 585.863281 656.59375 585.734375 657.242188 C 585.605469 657.886719 585.414062 658.515625 585.160156 659.128906 C 584.90625 659.738281 584.597656 660.316406 584.230469 660.867188 C 583.859375 661.414062 583.445312 661.921875 582.976562 662.390625 C 582.507812 662.855469 582 663.273438 581.449219 663.640625 C 580.898438 664.007812 580.316406 664.316406 579.707031 664.570312 C 579.097656 664.820312 578.464844 665.011719 577.816406 665.140625 C 577.167969 665.269531 576.511719 665.335938 575.851562 665.335938 C 575.191406 665.335938 574.535156 665.269531 573.886719 665.140625 C 573.238281 665.011719 572.605469 664.820312 571.996094 664.570312 C 571.382812 664.316406 570.804688 664.007812 570.253906 663.640625 C 569.703125 663.273438 569.195312 662.855469 568.726562 662.390625 C 568.257812 661.921875 567.839844 661.414062 567.472656 660.867188 C 567.105469 660.316406 566.796875 659.738281 566.542969 659.128906 C 566.289062 658.515625 566.097656 657.886719 565.96875 657.242188 C 565.839844 656.59375 565.777344 655.941406 565.777344 655.28125 C 565.777344 654.621094 565.839844 653.964844 565.96875 653.316406 C 566.097656 652.671875 566.289062 652.042969 566.542969 651.429688 C 566.796875 650.820312 567.105469 650.242188 567.472656 649.691406 C 567.839844 649.144531 568.257812 648.636719 568.726562 648.167969 C 569.195312 647.703125 569.703125 647.285156 570.253906 646.917969 C 570.804688 646.550781 571.382812 646.242188 571.996094 645.988281 C 572.605469 645.738281 573.238281 645.546875 573.886719 645.417969 C 574.535156 645.289062 575.191406 645.226562 575.851562 645.226562 C 576.511719 645.226562 577.167969 645.289062 577.816406 645.417969 C 578.464844 645.546875 579.097656 645.738281 579.707031 645.988281 C 580.316406 646.242188 580.898438 646.550781 581.449219 646.917969 C 582 647.285156 582.507812 647.703125 582.976562 648.167969 C 583.445312 648.636719 583.859375 649.144531 584.230469 649.691406 C 584.597656 650.242188 584.90625 650.820312 585.160156 651.433594 C 585.414062 652.042969 585.605469 652.671875 585.734375 653.316406 C 585.863281 653.964844 585.925781 654.621094 585.925781 655.28125 Z M 585.925781 655.28125 "/><path style=" stroke:none;fill-rule:nonzero;fill:#412424;fill-opacity:1;" d="M 442.425781 532.660156 C 436.582031 532.660156 431.875 527.960938 431.875 522.128906 C 431.875 516.296875 436.582031 511.597656 442.425781 511.597656 C 448.269531 511.597656 452.980469 516.296875 452.980469 522.128906 C 452.980469 527.960938 448.210938 532.660156 442.425781 532.660156 Z M 442.425781 512.492188 C 437.121094 512.492188 432.769531 516.832031 432.769531 522.128906 C 432.769531 527.425781 437.121094 531.765625 442.425781 531.765625 C 447.730469 531.765625 452.085938 527.425781 452.085938 522.128906 C 452.023438 516.832031 447.730469 512.492188 442.425781 512.492188 Z M 442.425781 512.492188 "/><path style=" stroke:none;fill-rule:nonzero;fill:#412424;fill-opacity:1;" d="M 656.871094 466.796875 C 651.03125 466.796875 646.320312 462.097656 646.320312 456.265625 C 646.320312 450.4375 651.03125 445.738281 656.871094 445.738281 C 662.714844 445.738281 667.425781 450.4375 667.425781 456.265625 C 667.425781 462.097656 662.714844 466.796875 656.871094 466.796875 Z M 656.871094 446.628906 C 651.566406 446.628906 647.214844 450.972656 647.214844 456.265625 C 647.214844 461.5625 651.566406 465.847656 656.871094 465.847656 C 662.179688 465.847656 666.53125 461.503906 666.53125 456.207031 C 666.53125 450.914062 662.238281 446.628906 656.871094 446.628906 Z M 656.871094 446.628906 "/><path style=" stroke:none;fill-rule:nonzero;fill:#412424;fill-opacity:1;" d="M 471.757812 614.289062 C 471.640625 614.289062 471.578125 614.289062 471.460938 614.226562 L 453.753906 609.945312 C 453.097656 609.765625 452.679688 609.109375 452.859375 608.457031 C 453.039062 607.800781 453.695312 607.386719 454.351562 607.5625 L 472.054688 611.847656 C 472.710938 612.027344 473.128906 612.679688 472.949219 613.335938 C 472.832031 613.871094 472.292969 614.289062 471.757812 614.289062 Z M 471.757812 614.289062 "/><path style=" stroke:none;fill-rule:nonzero;fill:#412424;fill-opacity:1;" d="M 460.789062 620.949219 C 460.667969 620.949219 460.609375 620.949219 460.492188 620.890625 C 459.835938 620.710938 459.417969 620.058594 459.597656 619.402344 L 463.886719 601.734375 C 464.066406 601.078125 464.722656 600.664062 465.378906 600.839844 C 466.035156 601.019531 466.453125 601.675781 466.273438 602.328125 L 461.980469 620 C 461.863281 620.59375 461.324219 620.949219 460.789062 620.949219 Z M 460.789062 620.949219 "/><path style=" stroke:none;fill-rule:nonzero;fill:#412424;fill-opacity:1;" d="M 662.417969 597.152344 C 662.117188 597.152344 661.820312 597.035156 661.582031 596.796875 C 661.105469 596.320312 661.046875 595.546875 661.523438 595.070312 L 674.101562 581.921875 C 674.578125 581.445312 675.355469 581.386719 675.832031 581.863281 C 676.308594 582.339844 676.367188 583.113281 675.890625 583.585938 L 663.371094 596.734375 C 663.074219 596.972656 662.773438 597.152344 662.417969 597.152344 Z M 662.417969 597.152344 "/><path style=" stroke:none;fill-rule:nonzero;fill:#412424;fill-opacity:1;" d="M 675.292969 596.796875 C 674.996094 596.796875 674.699219 596.675781 674.460938 596.4375 L 661.285156 583.886719 C 660.808594 583.410156 660.746094 582.636719 661.222656 582.160156 C 661.699219 581.683594 662.476562 581.625 662.953125 582.101562 L 676.128906 594.652344 C 676.605469 595.128906 676.664062 595.902344 676.1875 596.378906 C 675.949219 596.675781 675.652344 596.796875 675.292969 596.796875 Z M 675.292969 596.796875 "/></g></svg>