<svg xmlns="http://www.w3.org/2000/svg" xmlns:xlink="http://www.w3.org/1999/xlink" width="1080" zoomAndPan="magnify" viewBox="0 0 810 809.999993" height="1080" preserveAspectRatio="xMidYMid meet" version="1.2"><defs><clipPath id="d563517bd3"><path d="M 308 628 L 515 628 L 515 728.871094 L 308 728.871094 Z M 308 628 "/></clipPath><clipPath id="3ae0a875c1"><path d="M 188 100.371094 L 634 100.371094 L 634 687 L 188 687 Z M 188 100.371094 "/></clipPath></defs><g id="6fe42fbbd6"><rect x="0" width="810" y="0" height="809.999993" style="fill:#ffffff;fill-opacity:1;stroke:none;"/><rect x="0" width="810" y="0" height="809.999993" style="fill:#ffffff;fill-opacity:1;stroke:none;"/><g clip-rule="nonzero" clip-path="url(#d563517bd3)"><path style=" stroke:none;fill-rule:nonzero;fill:#fbb03b;fill-opacity:1;" d="M 514.074219 678.542969 C 514.074219 679.367188 514.03125 680.191406 513.949219 681.011719 C 513.867188 681.835938 513.742188 682.65625 513.578125 683.476562 C 513.410156 684.296875 513.207031 685.113281 512.957031 685.929688 C 512.710938 686.742188 512.421875 687.554688 512.09375 688.363281 C 511.765625 689.167969 511.394531 689.972656 510.988281 690.773438 C 510.578125 691.570312 510.128906 692.363281 509.636719 693.152344 C 509.148438 693.941406 508.621094 694.722656 508.050781 695.5 C 507.484375 696.273438 506.878906 697.042969 506.234375 697.804688 C 505.589844 698.5625 504.90625 699.316406 504.183594 700.0625 C 503.464844 700.804688 502.707031 701.542969 501.910156 702.269531 C 501.117188 702.996094 500.285156 703.710938 499.421875 704.417969 C 498.554688 705.125 497.652344 705.820312 496.714844 706.503906 C 495.777344 707.1875 494.808594 707.863281 493.804688 708.523438 C 492.800781 709.1875 491.765625 709.835938 490.695312 710.472656 C 489.625 711.109375 488.523438 711.730469 487.394531 712.34375 C 486.261719 712.953125 485.097656 713.546875 483.90625 714.132812 C 482.714844 714.714844 481.496094 715.28125 480.246094 715.835938 C 478.996094 716.386719 477.722656 716.925781 476.417969 717.449219 C 475.117188 717.96875 473.785156 718.476562 472.433594 718.96875 C 471.078125 719.457031 469.703125 719.933594 468.300781 720.390625 C 466.898438 720.847656 465.476562 721.289062 464.03125 721.710938 C 462.582031 722.136719 461.117188 722.542969 459.632812 722.929688 C 458.144531 723.316406 456.640625 723.6875 455.117188 724.039062 C 453.59375 724.390625 452.050781 724.726562 450.496094 725.042969 C 448.9375 725.355469 447.363281 725.652344 445.777344 725.929688 C 444.191406 726.207031 442.589844 726.464844 440.976562 726.707031 C 439.363281 726.945312 437.742188 727.164062 436.105469 727.363281 C 434.472656 727.5625 432.828125 727.746094 431.171875 727.90625 C 429.519531 728.066406 427.859375 728.207031 426.191406 728.328125 C 424.527344 728.449219 422.851562 728.550781 421.175781 728.628906 C 419.5 728.710938 417.816406 728.769531 416.132812 728.8125 C 414.449219 728.851562 412.765625 728.871094 411.082031 728.871094 C 409.394531 728.871094 407.710938 728.851562 406.027344 728.8125 C 404.34375 728.769531 402.664062 728.710938 400.984375 728.628906 C 399.308594 728.550781 397.636719 728.449219 395.96875 728.328125 C 394.300781 728.207031 392.640625 728.066406 390.988281 727.90625 C 389.335938 727.746094 387.691406 727.5625 386.054688 727.363281 C 384.421875 727.164062 382.796875 726.945312 381.183594 726.707031 C 379.570312 726.464844 377.972656 726.207031 376.382812 725.929688 C 374.796875 725.652344 373.226562 725.355469 371.667969 725.042969 C 370.109375 724.726562 368.570312 724.390625 367.046875 724.039062 C 365.523438 723.6875 364.015625 723.316406 362.53125 722.929688 C 361.042969 722.542969 359.578125 722.136719 358.132812 721.710938 C 356.6875 721.289062 355.261719 720.847656 353.863281 720.390625 C 352.460938 719.933594 351.082031 719.457031 349.730469 718.96875 C 348.375 718.476562 347.046875 717.96875 345.742188 717.449219 C 344.441406 716.925781 343.164062 716.386719 341.914062 715.835938 C 340.667969 715.28125 339.445312 714.714844 338.253906 714.132812 C 337.0625 713.546875 335.902344 712.953125 334.769531 712.34375 C 333.636719 711.730469 332.535156 711.109375 331.46875 710.472656 C 330.398438 709.835938 329.359375 709.1875 328.355469 708.523438 C 327.351562 707.863281 326.382812 707.1875 325.445312 706.503906 C 324.507812 705.820312 323.609375 705.125 322.742188 704.417969 C 321.875 703.710938 321.042969 702.996094 320.25 702.269531 C 319.457031 701.542969 318.699219 700.804688 317.976562 700.0625 C 317.257812 699.316406 316.574219 698.5625 315.929688 697.804688 C 315.285156 697.042969 314.675781 696.273438 314.109375 695.5 C 313.542969 694.722656 313.011719 693.941406 312.523438 693.152344 C 312.035156 692.363281 311.585938 691.570312 311.175781 690.773438 C 310.765625 689.972656 310.398438 689.167969 310.066406 688.363281 C 309.738281 687.554688 309.449219 686.742188 309.203125 685.929688 C 308.957031 685.113281 308.75 684.296875 308.585938 683.476562 C 308.417969 682.65625 308.296875 681.835938 308.214844 681.011719 C 308.128906 680.191406 308.089844 679.367188 308.089844 678.542969 C 308.089844 677.71875 308.128906 676.898438 308.214844 676.074219 C 308.296875 675.25 308.417969 674.429688 308.585938 673.609375 C 308.75 672.789062 308.957031 671.972656 309.203125 671.160156 C 309.449219 670.34375 309.738281 669.53125 310.066406 668.726562 C 310.398438 667.917969 310.765625 667.113281 311.175781 666.316406 C 311.585938 665.515625 312.035156 664.722656 312.523438 663.933594 C 313.011719 663.144531 313.542969 662.363281 314.109375 661.589844 C 314.675781 660.8125 315.285156 660.042969 315.929688 659.285156 C 316.574219 658.523438 317.257812 657.769531 317.976562 657.023438 C 318.699219 656.28125 319.457031 655.542969 320.25 654.820312 C 321.042969 654.09375 321.875 653.375 322.742188 652.667969 C 323.609375 651.960938 324.507812 651.265625 325.445312 650.582031 C 326.382812 649.898438 327.351562 649.222656 328.355469 648.5625 C 329.359375 647.902344 330.398438 647.25 331.46875 646.613281 C 332.535156 645.976562 333.636719 645.355469 334.769531 644.746094 C 335.902344 644.132812 337.0625 643.539062 338.253906 642.957031 C 339.445312 642.375 340.667969 641.804688 341.914062 641.253906 C 343.164062 640.699219 344.441406 640.160156 345.742188 639.640625 C 347.046875 639.117188 348.375 638.609375 349.730469 638.117188 C 351.082031 637.628906 352.460938 637.152344 353.863281 636.695312 C 355.261719 636.238281 356.6875 635.796875 358.132812 635.375 C 359.578125 634.953125 361.042969 634.546875 362.53125 634.15625 C 364.015625 633.769531 365.523438 633.398438 367.046875 633.046875 C 368.570312 632.695312 370.109375 632.359375 371.667969 632.046875 C 373.226562 631.730469 374.796875 631.433594 376.382812 631.15625 C 377.972656 630.878906 379.570312 630.621094 381.183594 630.382812 C 382.796875 630.144531 384.421875 629.921875 386.054688 629.722656 C 387.691406 629.523438 389.335938 629.34375 390.988281 629.179688 C 392.640625 629.019531 394.300781 628.878906 395.96875 628.757812 C 397.636719 628.636719 399.308594 628.539062 400.984375 628.457031 C 402.664062 628.375 404.34375 628.316406 406.027344 628.273438 C 407.710938 628.234375 409.394531 628.214844 411.082031 628.214844 C 412.765625 628.214844 414.449219 628.234375 416.132812 628.273438 C 417.816406 628.316406 419.5 628.375 421.175781 628.457031 C 422.851562 628.539062 424.527344 628.636719 426.191406 628.757812 C 427.859375 628.878906 429.519531 629.019531 431.171875 629.179688 C 432.828125 629.34375 434.472656 629.523438 436.105469 629.722656 C 437.742188 629.921875 439.363281 630.144531 440.976562 630.382812 C 442.589844 630.621094 444.191406 630.878906 445.777344 631.15625 C 447.363281 631.433594 448.9375 631.730469 450.496094 632.046875 C 452.050781 632.359375 453.59375 632.695312 455.117188 633.046875 C 456.640625 633.398438 458.144531 633.769531 459.632812 634.15625 C 461.117188 634.546875 462.582031 634.953125 464.03125 635.375 C 465.476562 635.796875 466.898438 636.238281 468.300781 636.695312 C 469.703125 637.152344 471.078125 637.628906 472.433594 638.117188 C 473.785156 638.609375 475.117188 639.117188 476.417969 639.636719 C 477.722656 640.160156 478.996094 640.699219 480.246094 641.253906 C 481.496094 641.804688 482.714844 642.375 483.90625 642.957031 C 485.097656 643.539062 486.261719 644.132812 487.394531 644.746094 C 488.523438 645.355469 489.625 645.976562 490.695312 646.613281 C 491.765625 647.25 492.800781 647.902344 493.804688 648.5625 C 494.808594 649.222656 495.777344 649.898438 496.714844 650.582031 C 497.652344 651.265625 498.554688 651.960938 499.421875 652.667969 C 500.285156 653.375 501.117188 654.09375 501.910156 654.820312 C 502.707031 655.542969 503.464844 656.28125 504.183594 657.023438 C 504.90625 657.769531 505.589844 658.523438 506.234375 659.285156 C 506.878906 660.042969 507.484375 660.8125 508.050781 661.589844 C 508.621094 662.363281 509.148438 663.144531 509.636719 663.933594 C 510.128906 664.722656 510.578125 665.515625 510.988281 666.3125 C 511.394531 667.113281 511.765625 667.917969 512.09375 668.726562 C 512.421875 669.53125 512.710938 670.34375 512.957031 671.160156 C 513.207031 671.972656 513.410156 672.789062 513.578125 673.609375 C 513.742188 674.429688 513.867188 675.25 513.949219 676.074219 C 514.03125 676.898438 514.074219 677.71875 514.074219 678.542969 Z M 514.074219 678.542969 "/></g><g clip-rule="nonzero" clip-path="url(#3ae0a875c1)"><path style=" stroke:none;fill-rule:nonzero;fill:#ed4848;fill-opacity:1;" d="M 633.675781 322.980469 C 633.675781 468.582031 474.878906 632.773438 425.527344 680.28125 C 417.449219 688.0625 404.710938 688.0625 396.625 680.28125 C 347.277344 632.773438 188.476562 468.582031 188.476562 322.980469 C 188.476562 200.039062 288.136719 100.371094 411.074219 100.371094 C 534.007812 100.371094 633.671875 200.039062 633.671875 322.980469 Z M 633.675781 322.980469 "/></g><path style=" stroke:none;fill-rule:nonzero;fill:#f2f2f2;fill-opacity:1;" d="M 598.03125 322.980469 C 598.03125 326.039062 597.953125 329.097656 597.804688 332.152344 C 597.652344 335.210938 597.429688 338.261719 597.128906 341.304688 C 596.828125 344.351562 596.453125 347.386719 596.007812 350.414062 C 595.558594 353.4375 595.035156 356.453125 594.4375 359.453125 C 593.839844 362.453125 593.171875 365.4375 592.425781 368.40625 C 591.683594 371.375 590.867188 374.324219 589.980469 377.25 C 589.089844 380.179688 588.132812 383.082031 587.101562 385.964844 C 586.070312 388.84375 584.96875 391.699219 583.796875 394.527344 C 582.628906 397.351562 581.386719 400.148438 580.082031 402.914062 C 578.773438 405.679688 577.398438 408.414062 575.953125 411.113281 C 574.511719 413.808594 573.003906 416.472656 571.433594 419.09375 C 569.859375 421.71875 568.222656 424.304688 566.523438 426.847656 C 564.824219 429.390625 563.0625 431.894531 561.238281 434.351562 C 559.417969 436.808594 557.535156 439.21875 555.59375 441.585938 C 553.652344 443.949219 551.65625 446.265625 549.601562 448.535156 C 547.546875 450.800781 545.4375 453.015625 543.273438 455.179688 C 541.109375 457.34375 538.894531 459.453125 536.628906 461.507812 C 534.359375 463.5625 532.042969 465.558594 529.679688 467.5 C 527.316406 469.441406 524.902344 471.324219 522.445312 473.144531 C 519.988281 474.96875 517.488281 476.730469 514.945312 478.429688 C 512.398438 480.128906 509.816406 481.765625 507.191406 483.339844 C 504.566406 484.910156 501.90625 486.417969 499.207031 487.863281 C 496.507812 489.304688 493.777344 490.679688 491.011719 491.988281 C 488.246094 493.296875 485.449219 494.535156 482.621094 495.707031 C 479.796875 496.878906 476.941406 497.976562 474.0625 499.007812 C 471.179688 500.039062 468.277344 501 465.347656 501.886719 C 462.421875 502.777344 459.472656 503.589844 456.503906 504.335938 C 453.539062 505.078125 450.554688 505.75 447.550781 506.34375 C 444.550781 506.941406 441.539062 507.464844 438.511719 507.914062 C 435.484375 508.363281 432.449219 508.738281 429.40625 509.039062 C 426.359375 509.335938 423.308594 509.5625 420.253906 509.710938 C 417.199219 509.863281 414.140625 509.9375 411.082031 509.9375 C 408.019531 509.9375 404.964844 509.863281 401.90625 509.710938 C 398.851562 509.5625 395.800781 509.335938 392.757812 509.039062 C 389.710938 508.738281 386.675781 508.363281 383.648438 507.914062 C 380.625 507.464844 377.609375 506.941406 374.609375 506.34375 C 371.609375 505.75 368.625 505.078125 365.65625 504.335938 C 362.6875 503.589844 359.742188 502.777344 356.8125 501.886719 C 353.886719 501 350.980469 500.039062 348.101562 499.007812 C 345.21875 497.976562 342.367188 496.878906 339.539062 495.707031 C 336.710938 494.535156 333.914062 493.296875 331.148438 491.988281 C 328.382812 490.679688 325.652344 489.304688 322.953125 487.863281 C 320.253906 486.417969 317.59375 484.910156 314.96875 483.339844 C 312.347656 481.765625 309.761719 480.128906 307.21875 478.429688 C 304.675781 476.730469 302.171875 474.96875 299.714844 473.144531 C 297.257812 471.324219 294.847656 469.441406 292.480469 467.5 C 290.117188 465.558594 287.800781 463.5625 285.535156 461.507812 C 283.265625 459.453125 281.050781 457.34375 278.886719 455.179688 C 276.726562 453.015625 274.617188 450.800781 272.5625 448.535156 C 270.507812 446.265625 268.507812 443.949219 266.566406 441.585938 C 264.625 439.21875 262.746094 436.808594 260.921875 434.351562 C 259.101562 431.894531 257.339844 429.390625 255.640625 426.847656 C 253.9375 424.304688 252.300781 421.71875 250.730469 419.09375 C 249.15625 416.472656 247.648438 413.808594 246.207031 411.113281 C 244.765625 408.414062 243.390625 405.679688 242.082031 402.914062 C 240.773438 400.148438 239.535156 397.351562 238.363281 394.527344 C 237.191406 391.699219 236.089844 388.84375 235.0625 385.964844 C 234.03125 383.082031 233.070312 380.179688 232.183594 377.25 C 231.292969 374.324219 230.476562 371.375 229.734375 368.40625 C 228.992188 365.4375 228.320312 362.453125 227.722656 359.453125 C 227.128906 356.453125 226.605469 353.4375 226.15625 350.414062 C 225.707031 347.386719 225.332031 344.351562 225.03125 341.304688 C 224.734375 338.261719 224.507812 335.210938 224.359375 332.152344 C 224.207031 329.097656 224.132812 326.039062 224.132812 322.980469 C 224.132812 319.921875 224.207031 316.863281 224.359375 313.804688 C 224.507812 310.75 224.734375 307.699219 225.03125 304.65625 C 225.332031 301.609375 225.707031 298.574219 226.15625 295.546875 C 226.605469 292.519531 227.128906 289.507812 227.722656 286.507812 C 228.320312 283.503906 228.992188 280.519531 229.734375 277.554688 C 230.476562 274.585938 231.292969 271.636719 232.183594 268.710938 C 233.070312 265.78125 234.03125 262.875 235.0625 259.996094 C 236.089844 257.113281 237.191406 254.261719 238.363281 251.433594 C 239.535156 248.609375 240.773438 245.8125 242.082031 243.046875 C 243.390625 240.28125 244.765625 237.546875 246.207031 234.847656 C 247.648438 232.148438 249.15625 229.488281 250.730469 226.863281 C 252.300781 224.238281 253.9375 221.65625 255.640625 219.113281 C 257.339844 216.566406 259.101562 214.066406 260.921875 211.609375 C 262.746094 209.152344 264.625 206.742188 266.566406 204.375 C 268.507812 202.011719 270.507812 199.695312 272.5625 197.425781 C 274.617188 195.160156 276.726562 192.945312 278.886719 190.78125 C 281.050781 188.617188 283.265625 186.507812 285.535156 184.453125 C 287.800781 182.398438 290.117188 180.402344 292.480469 178.460938 C 294.847656 176.519531 297.257812 174.636719 299.714844 172.8125 C 302.171875 170.992188 304.675781 169.230469 307.21875 167.53125 C 309.761719 165.832031 312.347656 164.195312 314.96875 162.621094 C 317.59375 161.046875 320.253906 159.539062 322.953125 158.097656 C 325.652344 156.65625 328.382812 155.28125 331.148438 153.972656 C 333.914062 152.664062 336.710938 151.425781 339.539062 150.253906 C 342.367188 149.082031 345.21875 147.980469 348.101562 146.949219 C 350.980469 145.921875 353.886719 144.960938 356.8125 144.074219 C 359.742188 143.183594 362.6875 142.367188 365.65625 141.625 C 368.625 140.882812 371.609375 140.210938 374.609375 139.613281 C 377.609375 139.019531 380.625 138.496094 383.648438 138.046875 C 386.675781 137.597656 389.710938 137.222656 392.757812 136.921875 C 395.800781 136.621094 398.851562 136.398438 401.90625 136.246094 C 404.964844 136.097656 408.019531 136.023438 411.082031 136.023438 C 414.140625 136.023438 417.199219 136.097656 420.253906 136.246094 C 423.308594 136.398438 426.359375 136.621094 429.40625 136.921875 C 432.449219 137.222656 435.484375 137.597656 438.511719 138.046875 C 441.539062 138.496094 444.550781 139.019531 447.550781 139.613281 C 450.554688 140.210938 453.539062 140.882812 456.503906 141.625 C 459.472656 142.367188 462.421875 143.183594 465.347656 144.074219 C 468.277344 144.960938 471.179688 145.921875 474.0625 146.949219 C 476.941406 147.980469 479.796875 149.082031 482.621094 150.253906 C 485.449219 151.425781 488.246094 152.664062 491.011719 153.972656 C 493.777344 155.28125 496.507812 156.65625 499.207031 158.097656 C 501.90625 159.539062 504.566406 161.046875 507.191406 162.621094 C 509.816406 164.195312 512.398438 165.832031 514.945312 167.53125 C 517.488281 169.230469 519.988281 170.992188 522.445312 172.8125 C 524.902344 174.636719 527.316406 176.519531 529.679688 178.460938 C 532.042969 180.402344 534.359375 182.398438 536.628906 184.453125 C 538.894531 186.507812 541.109375 188.617188 543.273438 190.78125 C 545.4375 192.945312 547.546875 195.160156 549.601562 197.425781 C 551.65625 199.695312 553.652344 202.011719 555.59375 204.375 C 557.535156 206.742188 559.417969 209.152344 561.238281 211.609375 C 563.0625 214.066406 564.824219 216.566406 566.523438 219.113281 C 568.222656 221.65625 569.859375 224.238281 571.433594 226.863281 C 573.003906 229.488281 574.511719 232.148438 575.953125 234.847656 C 577.398438 237.546875 578.773438 240.28125 580.082031 243.046875 C 581.386719 245.8125 582.628906 248.609375 583.796875 251.433594 C 584.96875 254.261719 586.070312 257.113281 587.101562 259.996094 C 588.132812 262.875 589.089844 265.78125 589.980469 268.710938 C 590.867188 271.636719 591.683594 274.585938 592.425781 277.554688 C 593.171875 280.519531 593.839844 283.503906 594.4375 286.507812 C 595.035156 289.507812 595.558594 292.519531 596.007812 295.546875 C 596.453125 298.574219 596.828125 301.609375 597.128906 304.65625 C 597.429688 307.699219 597.652344 310.75 597.804688 313.804688 C 597.953125 316.863281 598.03125 319.921875 598.03125 322.980469 Z M 598.03125 322.980469 "/><path style=" stroke:none;fill-rule:nonzero;fill:#b3b3b3;fill-opacity:1;" d="M 393.484375 448.367188 C 365.984375 448.367188 343.617188 425.992188 343.617188 398.496094 L 343.617188 345.757812 C 343.617188 341.90625 346.746094 338.777344 350.601562 338.777344 C 354.457031 338.777344 357.585938 341.90625 357.585938 345.757812 L 357.585938 398.496094 C 357.585938 418.296875 373.6875 434.398438 393.484375 434.398438 C 413.28125 434.398438 429.390625 418.296875 429.390625 398.496094 L 429.390625 325.222656 C 429.390625 300.488281 449.515625 280.359375 474.25 280.359375 C 498.984375 280.359375 519.109375 300.488281 519.109375 325.222656 L 519.109375 345.757812 C 519.109375 349.613281 515.980469 352.742188 512.125 352.742188 C 508.269531 352.742188 505.140625 349.613281 505.140625 345.757812 L 505.140625 325.222656 C 505.140625 308.1875 491.289062 294.328125 474.25 294.328125 C 457.210938 294.328125 443.355469 308.1875 443.355469 325.222656 L 443.355469 398.496094 C 443.355469 426 420.984375 448.367188 393.484375 448.367188 Z M 393.484375 448.367188 "/><path style=" stroke:none;fill-rule:nonzero;fill:#999999;fill-opacity:1;" d="M 539.929688 373.566406 C 539.929688 374.476562 539.886719 375.386719 539.796875 376.292969 C 539.707031 377.199219 539.574219 378.097656 539.398438 378.992188 C 539.21875 379.886719 539 380.769531 538.734375 381.640625 C 538.46875 382.511719 538.164062 383.367188 537.8125 384.207031 C 537.464844 385.050781 537.078125 385.871094 536.648438 386.675781 C 536.21875 387.480469 535.75 388.257812 535.246094 389.015625 C 534.738281 389.773438 534.195312 390.503906 533.621094 391.207031 C 533.042969 391.914062 532.429688 392.585938 531.785156 393.230469 C 531.144531 393.875 530.46875 394.484375 529.765625 395.0625 C 529.0625 395.640625 528.332031 396.183594 527.574219 396.6875 C 526.816406 397.195312 526.035156 397.664062 525.234375 398.089844 C 524.429688 398.519531 523.605469 398.910156 522.765625 399.257812 C 521.925781 399.605469 521.066406 399.914062 520.195312 400.175781 C 519.324219 400.441406 518.441406 400.664062 517.550781 400.839844 C 516.65625 401.019531 515.757812 401.152344 514.851562 401.242188 C 513.945312 401.332031 513.035156 401.375 512.125 401.375 C 511.214844 401.375 510.304688 401.332031 509.398438 401.242188 C 508.492188 401.152344 507.59375 401.019531 506.699219 400.839844 C 505.808594 400.664062 504.925781 400.441406 504.054688 400.175781 C 503.179688 399.914062 502.324219 399.605469 501.484375 399.257812 C 500.640625 398.910156 499.820312 398.519531 499.015625 398.089844 C 498.214844 397.664062 497.433594 397.195312 496.675781 396.6875 C 495.917969 396.183594 495.1875 395.640625 494.484375 395.0625 C 493.78125 394.484375 493.105469 393.875 492.460938 393.230469 C 491.820312 392.585938 491.207031 391.914062 490.628906 391.207031 C 490.050781 390.503906 489.511719 389.773438 489.003906 389.015625 C 488.5 388.257812 488.03125 387.480469 487.601562 386.675781 C 487.171875 385.871094 486.785156 385.050781 486.433594 384.207031 C 486.085938 383.367188 485.78125 382.511719 485.515625 381.640625 C 485.25 380.769531 485.03125 379.886719 484.851562 378.992188 C 484.675781 378.097656 484.542969 377.199219 484.453125 376.292969 C 484.363281 375.386719 484.320312 374.476562 484.320312 373.566406 C 484.320312 372.65625 484.363281 371.75 484.453125 370.839844 C 484.542969 369.933594 484.675781 369.035156 484.851562 368.140625 C 485.03125 367.25 485.25 366.367188 485.515625 365.496094 C 485.78125 364.625 486.085938 363.765625 486.433594 362.925781 C 486.785156 362.085938 487.171875 361.261719 487.601562 360.457031 C 488.03125 359.65625 488.5 358.875 489.003906 358.117188 C 489.511719 357.359375 490.050781 356.628906 490.628906 355.925781 C 491.207031 355.222656 491.820312 354.546875 492.460938 353.90625 C 493.105469 353.261719 493.78125 352.648438 494.484375 352.070312 C 495.1875 351.492188 495.917969 350.953125 496.675781 350.445312 C 497.433594 349.941406 498.214844 349.472656 499.015625 349.042969 C 499.820312 348.613281 500.640625 348.226562 501.484375 347.875 C 502.324219 347.527344 503.179688 347.222656 504.054688 346.957031 C 504.925781 346.691406 505.808594 346.472656 506.699219 346.292969 C 507.59375 346.117188 508.492188 345.984375 509.398438 345.894531 C 510.304688 345.804688 511.214844 345.757812 512.125 345.757812 C 513.035156 345.757812 513.945312 345.804688 514.851562 345.894531 C 515.757812 345.984375 516.65625 346.117188 517.550781 346.292969 C 518.441406 346.472656 519.324219 346.691406 520.195312 346.957031 C 521.066406 347.222656 521.925781 347.527344 522.765625 347.875 C 523.605469 348.226562 524.429688 348.613281 525.234375 349.042969 C 526.035156 349.472656 526.816406 349.941406 527.574219 350.445312 C 528.332031 350.953125 529.0625 351.492188 529.765625 352.070312 C 530.46875 352.648438 531.144531 353.261719 531.785156 353.90625 C 532.429688 354.546875 533.042969 355.222656 533.621094 355.925781 C 534.195312 356.628906 534.738281 357.359375 535.246094 358.117188 C 535.75 358.875 536.21875 359.65625 536.648438 360.457031 C 537.078125 361.261719 537.464844 362.085938 537.8125 362.925781 C 538.164062 363.765625 538.46875 364.625 538.734375 365.496094 C 538.996094 366.367188 539.21875 367.25 539.398438 368.140625 C 539.574219 369.035156 539.707031 369.933594 539.796875 370.839844 C 539.886719 371.75 539.929688 372.65625 539.929688 373.566406 Z M 539.929688 373.566406 "/><path style=" stroke:none;fill-rule:nonzero;fill:#ed4848;fill-opacity:1;" d="M 381 218.214844 L 378.554688 218.214844 C 378.308594 214.578125 375.355469 211.679688 371.660156 211.679688 C 367.808594 211.679688 364.679688 214.808594 364.679688 218.664062 L 364.679688 231.734375 C 364.679688 235.589844 367.808594 238.71875 371.660156 238.71875 C 375.355469 238.71875 378.308594 235.820312 378.554688 232.183594 L 381 232.183594 C 387.605469 232.183594 392.972656 237.554688 392.972656 244.160156 L 392.972656 296.386719 C 392.972656 319.753906 373.960938 338.769531 350.59375 338.769531 C 327.230469 338.769531 308.214844 319.753906 308.214844 296.386719 L 308.214844 244.160156 C 308.214844 237.554688 313.589844 232.183594 320.191406 232.183594 L 322.632812 232.183594 C 322.878906 235.820312 325.832031 238.71875 329.527344 238.71875 C 333.382812 238.71875 336.507812 235.589844 336.507812 231.734375 L 336.507812 218.664062 C 336.507812 214.808594 333.382812 211.679688 329.527344 211.679688 C 325.824219 211.679688 322.878906 214.578125 322.632812 218.214844 L 320.191406 218.214844 C 305.882812 218.214844 294.25 229.855469 294.25 244.160156 L 294.25 296.386719 C 294.25 327.457031 319.527344 352.734375 350.59375 352.734375 C 381.660156 352.734375 406.941406 327.457031 406.941406 296.386719 L 406.941406 244.160156 C 406.941406 229.855469 395.300781 218.214844 381 218.214844 Z M 381 218.214844 "/></g></svg>