<svg xmlns="http://www.w3.org/2000/svg" xmlns:xlink="http://www.w3.org/1999/xlink" width="1080" zoomAndPan="magnify" viewBox="0 0 810 809.999993" height="1080" preserveAspectRatio="xMidYMid meet" version="1.2"><defs><clipPath id="71c27007ac"><path d="M 417 249 L 617.429688 249 L 617.429688 450 L 417 450 Z M 417 249 "/></clipPath></defs><g id="df3b7c6eae"><rect x="0" width="810" y="0" height="809.999993" style="fill:#ffffff;fill-opacity:1;stroke:none;"/><rect x="0" width="810" y="0" height="809.999993" style="fill:#ffffff;fill-opacity:1;stroke:none;"/><path style=" stroke:none;fill-rule:nonzero;fill:#db2a2a;fill-opacity:1;" d="M 393.867188 116.867188 L 227.539062 404.742188 C 225.445312 408.371094 223.46875 412.0625 221.617188 415.820312 C 219.765625 419.578125 218.035156 423.394531 216.433594 427.265625 C 214.828125 431.136719 213.355469 435.054688 212.007812 439.023438 C 210.660156 442.988281 209.445312 446.996094 208.363281 451.042969 C 207.277344 455.089844 206.328125 459.167969 205.511719 463.277344 C 204.695312 467.386719 204.011719 471.519531 203.464844 475.671875 C 202.917969 479.828125 202.511719 483.996094 202.238281 488.175781 C 201.964844 492.355469 201.828125 496.542969 201.828125 500.730469 C 201.828125 504.921875 201.964844 509.105469 202.242188 513.285156 C 202.515625 517.46875 202.925781 521.636719 203.472656 525.789062 C 204.023438 529.941406 204.703125 534.074219 205.523438 538.183594 C 206.339844 542.292969 207.292969 546.371094 208.378906 550.417969 C 209.464844 554.464844 210.679688 558.46875 212.027344 562.4375 C 213.375 566.40625 214.851562 570.324219 216.457031 574.195312 C 218.0625 578.0625 219.789062 581.878906 221.644531 585.636719 C 223.5 589.390625 225.472656 593.085938 227.570312 596.710938 C 229.667969 600.339844 231.878906 603.894531 234.207031 607.378906 C 236.535156 610.859375 238.976562 614.265625 241.527344 617.585938 C 244.082031 620.910156 246.738281 624.144531 249.5 627.296875 C 252.265625 630.445312 255.128906 633.5 258.09375 636.460938 C 261.054688 639.421875 264.113281 642.285156 267.265625 645.042969 C 270.417969 647.804688 273.65625 650.460938 276.980469 653.011719 C 280.304688 655.558594 283.710938 657.996094 287.195312 660.324219 C 290.679688 662.648438 294.234375 664.859375 297.867188 666.953125 C 301.496094 669.042969 305.1875 671.015625 308.949219 672.867188 C 312.707031 674.71875 316.523438 676.445312 320.394531 678.046875 C 324.265625 679.648438 328.183594 681.121094 332.152344 682.464844 C 336.121094 683.808594 340.128906 685.023438 344.175781 686.105469 C 348.222656 687.1875 352.304688 688.136719 356.414062 688.953125 C 360.523438 689.765625 364.652344 690.445312 368.808594 690.992188 C 372.960938 691.535156 377.128906 691.941406 381.3125 692.214844 C 385.492188 692.484375 389.675781 692.621094 393.867188 692.617188 C 398.058594 692.621094 402.242188 692.484375 406.421875 692.214844 C 410.605469 691.941406 414.773438 691.535156 418.925781 690.992188 C 423.082031 690.445312 427.210938 689.765625 431.320312 688.953125 C 435.433594 688.136719 439.511719 687.1875 443.558594 686.105469 C 447.605469 685.023438 451.613281 683.808594 455.582031 682.464844 C 459.550781 681.121094 463.46875 679.648438 467.339844 678.046875 C 471.214844 676.445312 475.027344 674.71875 478.785156 672.867188 C 482.546875 671.015625 486.238281 669.042969 489.867188 666.953125 C 493.5 664.859375 497.054688 662.648438 500.539062 660.324219 C 504.023438 657.996094 507.429688 655.558594 510.753906 653.011719 C 514.082031 650.460938 517.316406 647.804688 520.46875 645.042969 C 523.621094 642.285156 526.679688 639.421875 529.640625 636.460938 C 532.605469 633.5 535.46875 630.445312 538.234375 627.296875 C 540.996094 624.144531 543.65625 620.910156 546.207031 617.585938 C 548.757812 614.265625 551.199219 610.859375 553.527344 607.378906 C 555.855469 603.894531 558.070312 600.339844 560.164062 596.710938 C 562.261719 593.085938 564.234375 589.390625 566.089844 585.636719 C 567.945312 581.878906 569.671875 578.0625 571.277344 574.195312 C 572.882812 570.324219 574.359375 566.40625 575.707031 562.4375 C 577.054688 558.46875 578.269531 554.464844 579.355469 550.417969 C 580.441406 546.371094 581.394531 542.292969 582.210938 538.183594 C 583.03125 534.074219 583.714844 529.941406 584.261719 525.789062 C 584.808594 521.636719 585.21875 517.46875 585.496094 513.285156 C 585.769531 509.105469 585.90625 504.921875 585.90625 500.730469 C 585.90625 496.542969 585.773438 492.355469 585.5 488.175781 C 585.226562 483.996094 584.816406 479.828125 584.269531 475.671875 C 583.722656 471.519531 583.039062 467.386719 582.222656 463.277344 C 581.40625 459.167969 580.457031 455.089844 579.371094 451.042969 C 578.289062 446.996094 577.074219 442.988281 575.726562 439.023438 C 574.378906 435.054688 572.90625 431.136719 571.300781 427.265625 C 569.699219 423.394531 567.96875 419.578125 566.117188 415.820312 C 564.265625 412.0625 562.289062 408.371094 560.195312 404.742188 Z M 393.867188 116.867188 "/><g clip-rule="nonzero" clip-path="url(#71c27007ac)"><path style=" stroke:none;fill-rule:nonzero;fill:#f3d2b5;fill-opacity:1;" d="M 617.449219 349.726562 C 617.449219 351.363281 617.410156 353 617.332031 354.636719 C 617.25 356.269531 617.128906 357.902344 616.96875 359.53125 C 616.808594 361.160156 616.609375 362.785156 616.367188 364.40625 C 616.128906 366.027344 615.847656 367.640625 615.527344 369.246094 C 615.207031 370.851562 614.851562 372.449219 614.453125 374.035156 C 614.054688 375.625 613.617188 377.203125 613.140625 378.769531 C 612.667969 380.335938 612.152344 381.890625 611.601562 383.433594 C 611.050781 384.972656 610.460938 386.5 609.835938 388.015625 C 609.207031 389.527344 608.542969 391.023438 607.84375 392.503906 C 607.144531 393.984375 606.410156 395.445312 605.636719 396.890625 C 604.863281 398.335938 604.058594 399.757812 603.214844 401.164062 C 602.375 402.566406 601.5 403.949219 600.589844 405.3125 C 599.679688 406.671875 598.738281 408.011719 597.761719 409.328125 C 596.785156 410.640625 595.777344 411.933594 594.738281 413.199219 C 593.699219 414.464844 592.632812 415.703125 591.53125 416.917969 C 590.433594 418.128906 589.304688 419.316406 588.144531 420.472656 C 586.988281 421.632812 585.800781 422.761719 584.589844 423.859375 C 583.375 424.960938 582.136719 426.027344 580.871094 427.066406 C 579.605469 428.105469 578.316406 429.113281 577 430.089844 C 575.683594 431.0625 574.347656 432.007812 572.984375 432.917969 C 571.621094 433.824219 570.238281 434.703125 568.835938 435.542969 C 567.429688 436.386719 566.007812 437.191406 564.5625 437.964844 C 563.117188 438.734375 561.65625 439.472656 560.175781 440.171875 C 558.695312 440.871094 557.199219 441.535156 555.6875 442.164062 C 554.171875 442.789062 552.644531 443.378906 551.105469 443.929688 C 549.5625 444.480469 548.007812 444.996094 546.441406 445.46875 C 544.875 445.945312 543.296875 446.382812 541.707031 446.78125 C 540.121094 447.175781 538.523438 447.535156 536.917969 447.855469 C 535.3125 448.175781 533.699219 448.457031 532.078125 448.695312 C 530.460938 448.9375 528.835938 449.136719 527.203125 449.296875 C 525.574219 449.457031 523.941406 449.578125 522.308594 449.65625 C 520.671875 449.738281 519.035156 449.777344 517.398438 449.777344 C 515.761719 449.777344 514.125 449.738281 512.488281 449.65625 C 510.851562 449.578125 509.21875 449.457031 507.589844 449.296875 C 505.960938 449.136719 504.335938 448.9375 502.71875 448.695312 C 501.097656 448.457031 499.484375 448.175781 497.878906 447.855469 C 496.273438 447.535156 494.675781 447.179688 493.085938 446.78125 C 491.5 446.382812 489.921875 445.945312 488.355469 445.46875 C 486.789062 444.996094 485.234375 444.480469 483.691406 443.929688 C 482.148438 443.378906 480.621094 442.789062 479.109375 442.164062 C 477.597656 441.535156 476.101562 440.871094 474.621094 440.171875 C 473.140625 439.472656 471.675781 438.734375 470.234375 437.964844 C 468.789062 437.191406 467.363281 436.386719 465.960938 435.542969 C 464.554688 434.703125 463.171875 433.824219 461.8125 432.917969 C 460.449219 432.007812 459.113281 431.0625 457.796875 430.089844 C 456.480469 429.113281 455.191406 428.105469 453.925781 427.066406 C 452.660156 426.027344 451.417969 424.960938 450.207031 423.859375 C 448.992188 422.761719 447.808594 421.632812 446.648438 420.472656 C 445.492188 419.316406 444.363281 418.128906 443.265625 416.917969 C 442.164062 415.703125 441.09375 414.464844 440.054688 413.199219 C 439.015625 411.933594 438.011719 410.640625 437.035156 409.328125 C 436.058594 408.011719 435.117188 406.671875 434.207031 405.3125 C 433.296875 403.949219 432.421875 402.566406 431.578125 401.164062 C 430.738281 399.757812 429.929688 398.335938 429.160156 396.890625 C 428.386719 395.445312 427.652344 393.984375 426.953125 392.503906 C 426.25 391.023438 425.585938 389.527344 424.960938 388.015625 C 424.335938 386.5 423.746094 384.972656 423.195312 383.433594 C 422.640625 381.890625 422.128906 380.335938 421.652344 378.769531 C 421.179688 377.203125 420.742188 375.625 420.34375 374.035156 C 419.945312 372.449219 419.585938 370.851562 419.269531 369.246094 C 418.949219 367.640625 418.667969 366.027344 418.429688 364.40625 C 418.1875 362.785156 417.988281 361.160156 417.828125 359.53125 C 417.667969 357.902344 417.546875 356.269531 417.464844 354.636719 C 417.386719 353 417.34375 351.363281 417.34375 349.726562 C 417.34375 348.089844 417.386719 346.453125 417.464844 344.816406 C 417.546875 343.179688 417.667969 341.546875 417.828125 339.917969 C 417.988281 338.289062 418.1875 336.664062 418.429688 335.042969 C 418.667969 333.425781 418.949219 331.8125 419.269531 330.207031 C 419.585938 328.601562 419.945312 327.003906 420.34375 325.414062 C 420.742188 323.828125 421.179688 322.25 421.652344 320.683594 C 422.128906 319.113281 422.640625 317.558594 423.195312 316.019531 C 423.746094 314.476562 424.335938 312.949219 424.960938 311.4375 C 425.585938 309.925781 426.25 308.425781 426.953125 306.949219 C 427.652344 305.46875 428.386719 304.003906 429.160156 302.5625 C 429.929688 301.117188 430.738281 299.691406 431.578125 298.289062 C 432.421875 296.882812 433.296875 295.5 434.207031 294.140625 C 435.117188 292.777344 436.058594 291.4375 437.035156 290.125 C 438.011719 288.808594 439.015625 287.519531 440.054688 286.253906 C 441.09375 284.988281 442.164062 283.746094 443.265625 282.535156 C 444.363281 281.320312 445.492188 280.136719 446.648438 278.976562 C 447.808594 277.820312 448.992188 276.691406 450.207031 275.589844 C 451.417969 274.492188 452.660156 273.421875 453.925781 272.382812 C 455.191406 271.34375 456.480469 270.335938 457.796875 269.363281 C 459.113281 268.386719 460.449219 267.445312 461.8125 266.535156 C 463.171875 265.625 464.554688 264.75 465.960938 263.90625 C 467.363281 263.066406 468.789062 262.257812 470.234375 261.488281 C 471.675781 260.714844 473.140625 259.980469 474.621094 259.277344 C 476.101562 258.578125 477.597656 257.914062 479.109375 257.289062 C 480.621094 256.664062 482.148438 256.074219 483.691406 255.523438 C 485.234375 254.96875 486.789062 254.457031 488.355469 253.980469 C 489.921875 253.503906 491.5 253.070312 493.085938 252.671875 C 494.675781 252.273438 496.273438 251.914062 497.878906 251.59375 C 499.484375 251.277344 501.097656 250.996094 502.71875 250.753906 C 504.335938 250.515625 505.960938 250.316406 507.589844 250.15625 C 509.21875 249.992188 510.851562 249.875 512.488281 249.792969 C 514.125 249.714844 515.761719 249.671875 517.398438 249.671875 C 519.035156 249.671875 520.671875 249.714844 522.308594 249.792969 C 523.941406 249.875 525.574219 249.992188 527.203125 250.15625 C 528.835938 250.316406 530.460938 250.515625 532.078125 250.753906 C 533.699219 250.996094 535.3125 251.277344 536.917969 251.59375 C 538.523438 251.914062 540.121094 252.273438 541.707031 252.671875 C 543.296875 253.070312 544.875 253.503906 546.441406 253.980469 C 548.007812 254.457031 549.5625 254.96875 551.105469 255.523438 C 552.644531 256.074219 554.171875 256.664062 555.6875 257.289062 C 557.199219 257.914062 558.695312 258.578125 560.175781 259.277344 C 561.65625 259.980469 563.117188 260.714844 564.5625 261.488281 C 566.007812 262.257812 567.429688 263.066406 568.835938 263.90625 C 570.238281 264.75 571.621094 265.625 572.984375 266.535156 C 574.347656 267.445312 575.683594 268.386719 577 269.363281 C 578.316406 270.335938 579.605469 271.34375 580.871094 272.382812 C 582.136719 273.421875 583.375 274.492188 584.589844 275.589844 C 585.800781 276.691406 586.988281 277.820312 588.144531 278.976562 C 589.304688 280.136719 590.433594 281.320312 591.53125 282.535156 C 592.632812 283.746094 593.699219 284.988281 594.738281 286.253906 C 595.777344 287.519531 596.785156 288.808594 597.761719 290.125 C 598.738281 291.4375 599.679688 292.777344 600.589844 294.140625 C 601.5 295.5 602.375 296.882812 603.214844 298.289062 C 604.058594 299.691406 604.863281 301.117188 605.636719 302.5625 C 606.410156 304.003906 607.144531 305.46875 607.84375 306.949219 C 608.542969 308.425781 609.207031 309.925781 609.835938 311.4375 C 610.460938 312.949219 611.050781 314.476562 611.601562 316.019531 C 612.152344 317.558594 612.667969 319.113281 613.140625 320.683594 C 613.617188 322.25 614.054688 323.828125 614.453125 325.414062 C 614.851562 327.003906 615.207031 328.601562 615.527344 330.207031 C 615.847656 331.8125 616.128906 333.425781 616.367188 335.042969 C 616.609375 336.664062 616.808594 338.289062 616.96875 339.917969 C 617.128906 341.546875 617.25 343.179688 617.332031 344.816406 C 617.410156 346.453125 617.449219 348.089844 617.449219 349.726562 Z M 617.449219 349.726562 "/></g><path style=" stroke:none;fill-rule:nonzero;fill:#db2a2a;fill-opacity:1;" d="M 575.421875 327.78125 L 543.433594 327.78125 C 543.171875 327.78125 542.90625 327.757812 542.648438 327.707031 C 542.390625 327.652344 542.136719 327.578125 541.890625 327.476562 C 541.648438 327.375 541.414062 327.25 541.195312 327.105469 C 540.976562 326.957031 540.773438 326.789062 540.585938 326.601562 C 540.398438 326.414062 540.230469 326.210938 540.082031 325.992188 C 539.9375 325.773438 539.8125 325.539062 539.710938 325.296875 C 539.609375 325.050781 539.535156 324.796875 539.480469 324.539062 C 539.429688 324.28125 539.40625 324.015625 539.40625 323.753906 L 539.40625 291.765625 C 539.40625 291.238281 539.304688 290.726562 539.105469 290.238281 C 538.902344 289.75 538.617188 289.316406 538.246094 288.9375 C 537.875 288.5625 537.445312 288.269531 536.960938 288.0625 C 536.472656 287.851562 535.96875 287.746094 535.4375 287.738281 L 499.359375 287.738281 C 498.828125 287.746094 498.320312 287.851562 497.835938 288.0625 C 497.347656 288.269531 496.921875 288.5625 496.550781 288.9375 C 496.179688 289.316406 495.890625 289.75 495.691406 290.238281 C 495.492188 290.726562 495.390625 291.238281 495.390625 291.765625 L 495.390625 323.753906 C 495.390625 324.28125 495.292969 324.789062 495.089844 325.28125 C 494.890625 325.769531 494.605469 326.203125 494.234375 326.582031 C 493.863281 326.957031 493.433594 327.25 492.949219 327.457031 C 492.460938 327.667969 491.953125 327.773438 491.425781 327.78125 L 459.4375 327.78125 C 458.910156 327.78125 458.402344 327.882812 457.910156 328.082031 C 457.421875 328.285156 456.988281 328.570312 456.613281 328.941406 C 456.234375 329.3125 455.941406 329.742188 455.734375 330.226562 C 455.527344 330.714844 455.417969 331.21875 455.410156 331.75 L 455.410156 367.765625 C 455.417969 368.292969 455.527344 368.800781 455.734375 369.289062 C 455.941406 369.773438 456.234375 370.203125 456.613281 370.574219 C 456.988281 370.945312 457.421875 371.230469 457.910156 371.429688 C 458.402344 371.632812 458.910156 371.730469 459.4375 371.730469 L 491.425781 371.730469 C 491.6875 371.730469 491.945312 371.757812 492.199219 371.808594 C 492.453125 371.859375 492.703125 371.933594 492.941406 372.035156 C 493.183594 372.132812 493.410156 372.253906 493.628906 372.402344 C 493.84375 372.546875 494.046875 372.710938 494.230469 372.894531 C 494.414062 373.078125 494.578125 373.277344 494.722656 373.496094 C 494.867188 373.710938 494.988281 373.941406 495.089844 374.179688 C 495.1875 374.421875 495.265625 374.667969 495.316406 374.925781 C 495.367188 375.179688 495.390625 375.4375 495.390625 375.699219 L 495.390625 407.683594 C 495.390625 407.945312 495.417969 408.203125 495.46875 408.457031 C 495.519531 408.714844 495.59375 408.960938 495.695312 409.203125 C 495.792969 409.441406 495.914062 409.671875 496.058594 409.886719 C 496.203125 410.105469 496.367188 410.304688 496.554688 410.488281 C 496.738281 410.671875 496.9375 410.835938 497.152344 410.980469 C 497.371094 411.128906 497.597656 411.25 497.839844 411.347656 C 498.082031 411.449219 498.328125 411.523438 498.582031 411.574219 C 498.839844 411.625 499.097656 411.652344 499.359375 411.652344 L 535.183594 411.652344 C 535.441406 411.652344 535.699219 411.625 535.957031 411.574219 C 536.210938 411.523438 536.460938 411.449219 536.699219 411.347656 C 536.941406 411.25 537.167969 411.128906 537.386719 410.980469 C 537.601562 410.835938 537.800781 410.671875 537.988281 410.488281 C 538.171875 410.304688 538.335938 410.105469 538.480469 409.886719 C 538.625 409.671875 538.746094 409.441406 538.847656 409.203125 C 538.945312 408.960938 539.023438 408.714844 539.074219 408.457031 C 539.125 408.203125 539.148438 407.945312 539.148438 407.683594 L 539.148438 375.699219 C 539.15625 375.167969 539.265625 374.660156 539.472656 374.175781 C 539.683594 373.6875 539.972656 373.261719 540.351562 372.890625 C 540.726562 372.519531 541.160156 372.234375 541.652344 372.03125 C 542.140625 371.832031 542.648438 371.730469 543.179688 371.730469 L 575.164062 371.730469 C 575.695312 371.730469 576.203125 371.632812 576.691406 371.429688 C 577.183594 371.230469 577.617188 370.945312 577.992188 370.574219 C 578.371094 370.203125 578.660156 369.773438 578.871094 369.289062 C 579.078125 368.800781 579.1875 368.292969 579.195312 367.765625 L 579.195312 331.75 C 579.1875 331.242188 579.089844 330.753906 578.898438 330.285156 C 578.707031 329.8125 578.433594 329.394531 578.085938 329.027344 C 577.734375 328.660156 577.332031 328.367188 576.871094 328.152344 C 576.410156 327.9375 575.925781 327.816406 575.421875 327.78125 Z M 575.421875 327.78125 "/></g></svg>